<svg xmlns="http://www.w3.org/2000/svg" xmlns:xlink="http://www.w3.org/1999/xlink" viewBox="0 0 574.73 545.54"><defs><style>.cls-1,.cls-10,.cls-11,.cls-12,.cls-13,.cls-14,.cls-2,.cls-3,.cls-4,.cls-5,.cls-6,.cls-7,.cls-8,.cls-9{stroke-miterlimit:10;}.cls-1{fill:url(#Bronze);stroke:url(#Bronze-2);}.cls-2{fill:url(#Bronze-3);stroke:url(#Bronze-4);}.cls-3{fill:url(#Bronze-5);stroke:url(#Bronze-6);}.cls-4{fill:url(#Bronze-7);stroke:url(#Bronze-8);}.cls-5{fill:url(#Bronze-9);stroke:url(#Bronze-10);}.cls-6{fill:url(#Bronze-11);stroke:url(#Bronze-12);}.cls-7{fill:url(#Bronze-13);stroke:url(#Bronze-14);}.cls-8{fill:url(#Bronze-15);stroke:url(#Bronze-16);}.cls-9{fill:url(#Bronze-17);stroke:url(#Bronze-18);}.cls-10{fill:url(#Bronze-19);stroke:url(#Bronze-20);}.cls-11{fill:url(#Bronze-21);stroke:url(#Bronze-22);}.cls-12{fill:url(#Bronze-23);stroke:url(#Bronze-24);}.cls-13{fill:url(#Bronze-25);stroke:url(#Bronze-26);}.cls-14{fill:url(#Bronze-27);stroke:url(#Bronze-28);}</style><linearGradient id="Bronze" x1="0.5" y1="63.97" x2="201.91" y2="63.97" gradientUnits="userSpaceOnUse"><stop offset="0.01" stop-color="#401617"/><stop offset="0.08" stop-color="#6b4c2d"/><stop offset="0.38" stop-color="#a58a55"/><stop offset="0.56" stop-color="#e5d4b5"/><stop offset="0.8" stop-color="#987a59"/><stop offset="0.8" stop-color="#967857"/><stop offset="0.96" stop-color="#814f2f"/></linearGradient><linearGradient id="Bronze-2" x1="0" y1="63.97" x2="202.41" y2="63.97" xlink:href="#Bronze"/><linearGradient id="Bronze-3" x1="118.32" y1="93.72" x2="244.39" y2="93.72" xlink:href="#Bronze"/><linearGradient id="Bronze-4" x1="117.42" y1="93.72" x2="245.14" y2="93.72" xlink:href="#Bronze"/><linearGradient id="Bronze-5" x1="162.86" y1="120.56" x2="336.07" y2="120.56" xlink:href="#Bronze"/><linearGradient id="Bronze-6" x1="162.36" y1="120.56" x2="336.73" y2="120.56" xlink:href="#Bronze"/><linearGradient id="Bronze-7" x1="303.38" y1="92.18" x2="415.53" y2="92.18" xlink:href="#Bronze"/><linearGradient id="Bronze-8" x1="302.5" y1="92.17" x2="416.24" y2="92.17" xlink:href="#Bronze"/><linearGradient id="Bronze-9" x1="395.23" y1="75.32" x2="463.34" y2="75.32" xlink:href="#Bronze"/><linearGradient id="Bronze-10" x1="394.73" y1="75.32" x2="464.13" y2="75.32" xlink:href="#Bronze"/><linearGradient id="Bronze-11" x1="443.57" y1="65" x2="573.43" y2="65" xlink:href="#Bronze"/><linearGradient id="Bronze-12" x1="443.07" y1="64.97" x2="574.35" y2="64.97" xlink:href="#Bronze"/><linearGradient id="Bronze-13" x1="214.24" y1="287.66" x2="361.38" y2="287.66" xlink:href="#Bronze"/><linearGradient id="Bronze-14" x1="213.74" y1="287.66" x2="361.98" y2="287.66" xlink:href="#Bronze"/><linearGradient id="Bronze-15" x1="13.31" y1="481.57" x2="143.35" y2="481.57" xlink:href="#Bronze"/><linearGradient id="Bronze-16" x1="12.81" y1="481.57" x2="143.85" y2="481.57" xlink:href="#Bronze"/><linearGradient id="Bronze-17" x1="103.96" y1="482.6" x2="229" y2="482.6" xlink:href="#Bronze"/><linearGradient id="Bronze-18" x1="103.05" y1="482.57" x2="229.7" y2="482.57" xlink:href="#Bronze"/><linearGradient id="Bronze-19" x1="209.91" y1="511.32" x2="324.63" y2="511.32" xlink:href="#Bronze"/><linearGradient id="Bronze-20" x1="209.41" y1="511.32" x2="325.36" y2="511.32" xlink:href="#Bronze"/><linearGradient id="Bronze-21" x1="292.29" y1="509.78" x2="404.44" y2="509.78" xlink:href="#Bronze"/><linearGradient id="Bronze-22" x1="291.41" y1="509.77" x2="405.15" y2="509.77" xlink:href="#Bronze"/><linearGradient id="Bronze-23" x1="383.45" y1="482.6" x2="466.7" y2="482.6" xlink:href="#Bronze"/><linearGradient id="Bronze-24" x1="382.95" y1="482.57" x2="467.62" y2="482.57" xlink:href="#Bronze"/><linearGradient id="Bronze-25" x1="431.96" y1="492.92" x2="500.07" y2="492.92" xlink:href="#Bronze"/><linearGradient id="Bronze-26" x1="431.46" y1="492.92" x2="500.85" y2="492.92" xlink:href="#Bronze"/><linearGradient id="Bronze-27" x1="481.84" y1="511.32" x2="574.03" y2="511.32" xlink:href="#Bronze"/><linearGradient id="Bronze-28" x1="481.34" y1="511.32" x2="574.73" y2="511.32" xlink:href="#Bronze"/></defs><g id="Layer_2" data-name="Layer 2"><g id="Layer_1-2" data-name="Layer 1"><path class="cls-1" d="M91.14,38.17a27.64,27.64,0,0,1,3.1,5.93,19.15,19.15,0,0,1,1.2,6.8,20.93,20.93,0,0,1-3.52,12,31.49,31.49,0,0,1-8.86,8.77A44,44,0,0,1,71.45,77a41,41,0,0,1-11.78,1.89,24.24,24.24,0,0,1-9.46-1.8,23.81,23.81,0,0,1-7.48-4.91,21.88,21.88,0,0,1-5-7.39,24.1,24.1,0,0,1-1.81-9.46q0-12.39,7.66-21a59.63,59.63,0,0,1,19.6-14.19,123.35,123.35,0,0,1,26.32-8.68A270.16,270.16,0,0,1,117.37,7q13.5-1.45,24.26-1.72T157,5a122.28,122.28,0,0,0,14.19-.69c3.84-.45,7.17-1,10-1.54s5.24-1.09,7.31-1.55a27.54,27.54,0,0,1,6-.69,13,13,0,0,1,5.24,1,3.38,3.38,0,0,1,2.15,3.35c0,1.26-.77,2.18-2.32,2.75a16,16,0,0,1-5.59.86,58.27,58.27,0,0,1-8.51-.51,36.73,36.73,0,0,0-5.42-.52,27.44,27.44,0,0,0-13.93,4.13A62.67,62.67,0,0,0,152,23.38a142.41,142.41,0,0,0-14.37,18.83,258.27,258.27,0,0,0-14.27,25.2,141.3,141.3,0,0,1-18,27.78,97.75,97.75,0,0,1-20.55,18.57,79.44,79.44,0,0,1-22.7,10.41,92,92,0,0,1-24.43,3.27,56.54,56.54,0,0,1-14.53-1.81,40,40,0,0,1-11.78-5.07,26.53,26.53,0,0,1-7.92-7.83A18.32,18.32,0,0,1,.5,102.67,13,13,0,0,1,4.28,93a13.26,13.26,0,0,1,9.64-3.7q5,0,7.31,3.44a13.61,13.61,0,0,1,2.32,7.74A8.57,8.57,0,0,1,21.66,106,9.61,9.61,0,0,1,17,109.2q.85,8.1,6.37,12.13t14.27,4a39.54,39.54,0,0,0,21.85-6.19A76.11,76.11,0,0,0,76.7,104,120.4,120.4,0,0,0,89.94,84.61Q95.61,74.29,100.09,66A172.18,172.18,0,0,1,113.93,44.1a89.73,89.73,0,0,1,34.49-27.86,163.55,163.55,0,0,1,24.42-8.86L172.67,7q-12,0-25.54.86t-26.66,2.92a207.91,207.91,0,0,0-25.11,5.5,88.26,88.26,0,0,0-21,8.86,47.87,47.87,0,0,0-14.44,12.9,28.94,28.94,0,0,0-5.42,17.46,17.83,17.83,0,0,0,4.38,12.21,14.71,14.71,0,0,0,11.61,5,19.16,19.16,0,0,0,8.52-2,29.26,29.26,0,0,0,7.31-5.07,24.6,24.6,0,0,0,5.16-7,17,17,0,0,0,1.89-7.48A20.59,20.59,0,0,0,89.6,39Z"/><path class="cls-2" d="M118.32,124.68l35.6-60.88,24.43-1Q166,80,154.61,97.85l.34.35q4.47-5.69,10-12.22a131,131,0,0,1,11.61-12.12,74.69,74.69,0,0,1,12.56-9.38,25.18,25.18,0,0,1,12.81-3.78,17.47,17.47,0,0,1,10.92,3.35q4.39,3.36,4.39,10.24A23.11,23.11,0,0,1,213.69,86a127.3,127.3,0,0,1-7.82,11.79q-4.31,5.76-7.83,11T194.51,118a5,5,0,0,0,1,3,3.48,3.48,0,0,0,3,1.29q3.78,0,8.6-3.53a86.9,86.9,0,0,0,10-8.69q3.94-3.94,7.91-8.51t7.39-8.77q3.45-4.22,6.2-7.74c1.83-2.35,3.26-4.22,4.3-5.59l1.54.86q-5.85,7.74-12.47,16t-13.33,15.14a72,72,0,0,1-13.67,11.27,25.7,25.7,0,0,1-13.5,4q-7.74,0-11.61-4.56t-3.87-11.78a22.57,22.57,0,0,1,3.35-11.78,81.33,81.33,0,0,1,7.48-10.5q4.14-4.89,7.49-9t3.35-7.74c0-3.2-1.55-4.81-4.64-4.81q-3.1,0-7.57,3.18a76.67,76.67,0,0,0-9.63,8.34q-5.16,5.16-10.5,11.53t-10.06,12.72q-4.72,6.38-8.25,12a97.54,97.54,0,0,0-5.25,9.29Z"/><path class="cls-3" d="M221.52,108.69a37.21,37.21,0,0,1,4.55-17.55,58.12,58.12,0,0,1,11.87-15.39,60.68,60.68,0,0,1,16.43-10.92,44.24,44.24,0,0,1,18.4-4.13,22.62,22.62,0,0,1,9.72,2q4.22,2,7.14,8.17l4.13-8.09,23.9-1q-8.94,15.32-17.8,30t-17.63,29.67a76,76,0,0,0,15.22-7.31A113.92,113.92,0,0,0,311.3,104a152.71,152.71,0,0,0,12.47-12q5.93-6.36,11.09-12.72l1.21,1.2Q330.91,87,324.54,93.72a152.66,152.66,0,0,1-13.41,12.56,123,123,0,0,1-14.71,10.49,66.92,66.92,0,0,1-15.74,7,114.83,114.83,0,0,1-15.48,23.74,104,104,0,0,1-19.35,17.8,86.34,86.34,0,0,1-21.75,11.18,70.53,70.53,0,0,1-22.88,3.87A71.44,71.44,0,0,1,187.29,179a42.43,42.43,0,0,1-12.3-4.39,26.12,26.12,0,0,1-8.77-7.74A21,21,0,0,1,164.67,147a18.44,18.44,0,0,1,5.59-6.8,27.61,27.61,0,0,1,9.8-4.55A55.72,55.72,0,0,1,194.51,134h11V136h-3.78q-8.27,0-13.25,4.81t-5,15a27.49,27.49,0,0,0,1.38,8.77,19.92,19.92,0,0,0,10.41,11.95,18.65,18.65,0,0,0,8.34,1.81q10.49,0,20-7.74a93,93,0,0,0,18-20.13L268,112.13l-.35-.35a44.34,44.34,0,0,1-13.84,11,35.25,35.25,0,0,1-16.09,4q-7.74,0-12-5.08T221.52,108.69Zm22.36,2.58A15.25,15.25,0,0,0,245,117.2q1.13,2.67,5.08,2.67a14.18,14.18,0,0,0,7.56-2.5,40,40,0,0,0,7.75-6.53,71.73,71.73,0,0,0,7.22-9.2,77.61,77.61,0,0,0,5.93-10.58,85.07,85.07,0,0,0,4.05-10.49,31.39,31.39,0,0,0,1.54-9A9.07,9.07,0,0,0,282,65.09a7.25,7.25,0,0,0-5.59-2.33A13.78,13.78,0,0,0,269,65.17a38.51,38.51,0,0,0-7.4,6.28,63.35,63.35,0,0,0-6.88,8.94A76.72,76.72,0,0,0,249,90.89a69.65,69.65,0,0,0-3.79,10.66A38.37,38.37,0,0,0,243.88,111.27Z"/><path class="cls-4" d="M303.38,124.68l34.75-61.23,24.77-.69-26.32,38.88.34.34a167.4,167.4,0,0,1,17.63-21.84q8.18-8.26,14.37-10.84a42.89,42.89,0,0,1,4.3-4.64,13.81,13.81,0,0,1,4.9-2.76,35.34,35.34,0,0,1,8.08-1.46q5.07-.42,13.85-.77a55.26,55.26,0,0,0-4.13,4.64,45.43,45.43,0,0,0-3.78,5.51,35.07,35.07,0,0,0-2.84,6,17.54,17.54,0,0,0-1.12,6,13,13,0,0,0,1.81,6.7,6.16,6.16,0,0,0,5.76,3.1,12.81,12.81,0,0,0,5.16-1.12,24.7,24.7,0,0,0,5-2.92,39.25,39.25,0,0,0,4.56-4c1.43-1.49,2.72-2.93,3.87-4.3l1.2,1c-.8.92-1.95,2.26-3.44,4a30.4,30.4,0,0,1-5.93,5.25A39.55,39.55,0,0,1,397,94.15a37.92,37.92,0,0,1-13,2,21.35,21.35,0,0,1-7.56-1.29,18.27,18.27,0,0,1-5.77-3.35,14.75,14.75,0,0,1-3.61-4.82,13.58,13.58,0,0,1-1.29-5.85,19.29,19.29,0,0,1,1.38-8.08V72.4a47.13,47.13,0,0,0-11.27,9.11,155.27,155.27,0,0,0-11.87,14q-5.76,7.65-10.49,15.31a131.92,131.92,0,0,0-7.14,12.81Z"/><path class="cls-5" d="M443.22,62.76q-5.5,8.77-10.84,17t-9.46,15.4q-4.12,7.14-6.62,12.64t-2.49,8.77a8.5,8.5,0,0,0,.86,4,3.18,3.18,0,0,0,3.09,1.64,14.43,14.43,0,0,0,7.49-2.5,58.88,58.88,0,0,0,8.34-6.36,107.23,107.23,0,0,0,8.6-8.77q4.29-4.91,8.08-9.64t6.8-8.94c2-2.81,3.64-5.07,4.9-6.79l1.37.51Q459.22,85.64,453,94a156.32,156.32,0,0,1-13.93,16.26,82.11,82.11,0,0,1-14.62,12.29,27.55,27.55,0,0,1-15,4.22q-7,0-10.67-4t-3.61-11.27q0-7.74,6.62-19.35t16.77-28.64Zm-8.77-26.83a12,12,0,0,1,24.08,0,12,12,0,1,1-24.08,0Z"/><path class="cls-6" d="M573.43,3.25Q559,27.34,548.57,44.62T530.94,74q-7.23,12.12-11.52,19.78t-6.63,12.3a52.07,52.07,0,0,0-3.09,7.14,14.87,14.87,0,0,0-.77,4.38A5,5,0,0,0,510,121a4.44,4.44,0,0,0,3.53,1.29q2.92,0,8.26-3.44a67.17,67.17,0,0,0,10.83-9,156.79,156.79,0,0,0,14.88-17q6.27-8.42,9.72-13.24l1.55.86q-4,5.67-10.75,14.71a162.07,162.07,0,0,1-15.91,18q-7.41,7.23-13.59,10.41a27.55,27.55,0,0,1-12.73,3.18q-6.7,0-10.58-4.13a14.5,14.5,0,0,1-3.87-10.32,11.66,11.66,0,0,1,.86-4.13l-.34-.34a66.48,66.48,0,0,1-13.85,13.33,31,31,0,0,1-18.49,5.59q-8.08,0-12-5.33a20.48,20.48,0,0,1-3.95-12.56,37.82,37.82,0,0,1,4.9-18.75A55.06,55.06,0,0,1,461.11,74.8,62.32,62.32,0,0,1,478.4,64.48a50.87,50.87,0,0,1,18.83-3.78A12.43,12.43,0,0,1,506.17,64a16.43,16.43,0,0,1,4.65,8.25L548.66,5ZM505.66,71.54a12.23,12.23,0,0,0-1.46-6.37c-1-1.6-2.79-2.41-5.42-2.41q-5.16,0-10.92,5.16a64.55,64.55,0,0,0-10.67,12.56,81.62,81.62,0,0,0-8.08,15.57,39.85,39.85,0,0,0-3.18,14.19,13.24,13.24,0,0,0,1.37,6.45,4.88,4.88,0,0,0,4.65,2.49,15.07,15.07,0,0,0,8.17-2.58,38.37,38.37,0,0,0,7.82-6.79,61.64,61.64,0,0,0,7-9.55,111.67,111.67,0,0,0,5.59-10.58,71.56,71.56,0,0,0,3.78-10.06A30.33,30.33,0,0,0,505.66,71.54Z"/><path class="cls-7" d="M361.38,306.49a40.77,40.77,0,0,1-6,11.27,43.36,43.36,0,0,1-11,10.38A62.39,62.39,0,0,1,328,335.71a75,75,0,0,1-22.26,3,79.74,79.74,0,0,1-18.57-2.2,50.78,50.78,0,0,1-17-7.48,66.2,66.2,0,0,1-14.08,7,45.24,45.24,0,0,1-15.32,2.64,32.41,32.41,0,0,1-10.11-1.58,25.56,25.56,0,0,1-8.54-4.67,21.65,21.65,0,0,1-5.81-7.57,23.43,23.43,0,0,1-2.11-10.12,26.37,26.37,0,0,1,3.25-13.28,36.35,36.35,0,0,1,8.45-10,57.45,57.45,0,0,1,11.53-7.39,112.09,112.09,0,0,1,12.5-5.19,63.76,63.76,0,0,1,4.92-14.34A57.28,57.28,0,0,1,264,250.79a48,48,0,0,1,12.67-10.21,31.55,31.55,0,0,1,15.58-4,14.48,14.48,0,0,1,9.15,3.17q4,3.17,4.05,9.33a13.75,13.75,0,0,1-4.4,10.12,44.37,44.37,0,0,1-10.47,7.48,86.09,86.09,0,0,1-12.68,5.36q-6.6,2.21-10.82,3.79a57.09,57.09,0,0,0,4.31,21.82A58.06,58.06,0,0,0,283.05,316q6-6.69,11.09-13.56a143.76,143.76,0,0,1,10.21-12.32,53.58,53.58,0,0,1,10.56-8.88,22.66,22.66,0,0,1,12.32-3.44q6.51,0,10.3,3.26t3.78,9.24a10.53,10.53,0,0,1-2.73,7,9,9,0,0,1-7.12,3.17,10.06,10.06,0,0,1-6.61-2.11q-2.55-2.11-2.55-6.69a8.15,8.15,0,0,1,1.06-4.23,11.91,11.91,0,0,1,2.81-3.16,4.78,4.78,0,0,0-1.67-.8,10.46,10.46,0,0,0-3.25-.44,13.76,13.76,0,0,0-7.57,2.56,48,48,0,0,0-8.27,7.21q-4.41,4.66-9.51,11t-11.26,13.73a54.78,54.78,0,0,0,16.45,11.79,43.14,43.14,0,0,0,18,4.05,44.72,44.72,0,0,0,14.61-2.29,44.25,44.25,0,0,0,12-6.16,40.8,40.8,0,0,0,8.89-8.8,40.38,40.38,0,0,0,5.54-10.38Zm-128.13,1.23q0,10.39,5.54,17.16t16.81,6.78a27.48,27.48,0,0,0,6.69-.88,17.4,17.4,0,0,0,6.16-2.82,51.72,51.72,0,0,1-14.35-17.33,48,48,0,0,1-5-21.91c0-1.29,0-2.61.08-4a28.56,28.56,0,0,1,.45-4,28,28,0,0,0-12.33,11A31,31,0,0,0,233.25,307.72Zm55.26-57.9a16,16,0,0,0-1.32-6.95,4.47,4.47,0,0,0-4.31-2.73,8,8,0,0,0-5.37,2.55,27.27,27.27,0,0,0-5.1,6.87A45.44,45.44,0,0,0,267,270.94v3a33.47,33.47,0,0,0,15.22-8.27Q288.52,259.68,288.51,249.82Z"/><path class="cls-8" d="M96.73,436.16a25.62,25.62,0,0,0-3.44,4.64,15,15,0,0,0-1.89,7.92,14,14,0,0,0,4,10.32,13.28,13.28,0,0,0,9.8,3.95,18.28,18.28,0,0,0,10.15-3,29.81,29.81,0,0,0,8-7.65,37.23,37.23,0,0,0,5.16-10.15,33.3,33.3,0,0,0,1.8-10.32q0-6.36-3.52-9t-9.55-2.67A49.44,49.44,0,0,0,98.54,424a80.72,80.72,0,0,0-18.4,10.58,109.84,109.84,0,0,0-16.69,15.74,112.11,112.11,0,0,0-13.59,19.52,110.59,110.59,0,0,0-9.11,21.76,78.2,78.2,0,0,0-3.36,22.45,37.29,37.29,0,0,0,1.46,10.49,28.19,28.19,0,0,0,4.2,8.77,22.08,22.08,0,0,0,6.43,6,15.44,15.44,0,0,0,8.15,2.24,28.13,28.13,0,0,0,12.94-3.19,41.77,41.77,0,0,0,11.23-8.34,41,41,0,0,0,8-11.87A34.11,34.11,0,0,0,92,497a20,20,0,0,0-2.4-6.19,13.6,13.6,0,0,0-4.13-4.3,10.92,10.92,0,0,0-6.11-1.63,14.69,14.69,0,0,0-11.18,4.55A32.09,32.09,0,0,0,61.56,500a55.46,55.46,0,0,0-3.18,11.7,61,61,0,0,0-.86,8.08H55.45a57.62,57.62,0,0,1,1.81-13.93,45.05,45.05,0,0,1,5.68-13.33,31.88,31.88,0,0,1,10-10,26.59,26.59,0,0,1,14.54-3.87,23.47,23.47,0,0,1,8.6,1.55,20.66,20.66,0,0,1,6.88,4.39,21.48,21.48,0,0,1,4.64,6.71,20.8,20.8,0,0,1,1.72,8.51,32.66,32.66,0,0,1-4.72,16.43A52.82,52.82,0,0,1,92,530.76a66.49,66.49,0,0,1-17.94,10.32,57,57,0,0,1-20.94,4Q32.54,545,22.93,535t-9.62-28.46a52.08,52.08,0,0,1,4.82-21.42,92.26,92.26,0,0,1,12.81-20.55,129.65,129.65,0,0,1,18.41-18.32,146,146,0,0,1,21.76-14.79,121.26,121.26,0,0,1,22.7-9.8A71.63,71.63,0,0,1,115,418.1a70.29,70.29,0,0,1,10.32.77,27.64,27.64,0,0,1,9.11,2.93,17.47,17.47,0,0,1,6.45,6,18.31,18.31,0,0,1,2.5,10.06,22.09,22.09,0,0,1-2.67,10.41,29.37,29.37,0,0,1-7.31,8.94,37.5,37.5,0,0,1-10.75,6.19,36.18,36.18,0,0,1-13,2.32,30.71,30.71,0,0,1-7.65-.94,19.14,19.14,0,0,1-6.54-3A14.67,14.67,0,0,1,91,456.54a16.55,16.55,0,0,1-1.63-7.65,18.59,18.59,0,0,1,1.46-7.05,20,20,0,0,1,4.56-6.71Z"/><path class="cls-9" d="M104,542.28q17.72-29.92,34.91-59.77t34.92-59.94l24.59-1.72Q184.1,444.76,169.57,469t-29.15,46.27l.34.34q4-5.32,9.21-11.78a113.65,113.65,0,0,1,11.43-12.12,70.24,70.24,0,0,1,13.08-9.55,27.82,27.82,0,0,1,13.76-3.87,16.6,16.6,0,0,1,9.88,3q4.22,3,4.22,10.06a25.29,25.29,0,0,1-3.53,12.47,111.23,111.23,0,0,1-7.82,12q-4.31,5.77-7.83,10.92t-3.52,9a4.52,4.52,0,0,0,.94,3,3.53,3.53,0,0,0,2.84,1.12q3.44,0,7.83-2.84a63.15,63.15,0,0,0,8.94-7.14,119.16,119.16,0,0,0,9-9.55q4.47-5.24,8.26-10T224,502c1.83-2.46,3.15-4.16,4-5.07l1,.86c-1.95,2.4-4.1,5.22-6.45,8.42s-4.93,6.57-7.74,10.07-5.76,6.91-8.86,10.23a99,99,0,0,1-9.54,9,46.24,46.24,0,0,1-10.15,6.45,25.26,25.26,0,0,1-10.58,2.41,12.9,12.9,0,0,1-5.85-1.29,12.76,12.76,0,0,1-4.3-3.44,14.61,14.61,0,0,1-2.58-5,19.85,19.85,0,0,1-.86-5.76,24,24,0,0,1,3.27-12.21,99.23,99.23,0,0,1,7.14-10.75q3.87-5.07,7.05-9.46c2.12-2.93,3.18-5.59,3.18-8q0-4.31-3.95-4.3c-2.07,0-4.56.94-7.49,2.84a62.53,62.53,0,0,0-9.28,7.56,144,144,0,0,0-10,10.75q-5.07,6-9.72,12.39t-8.51,12.47a111.64,111.64,0,0,0-6.28,11.09Z"/><path class="cls-10" d="M306.22,480.36q-1.89,2.76-4.9,7.06t-6.45,9.28q-3.44,5-6.88,10.41t-6.28,10.58a92.09,92.09,0,0,0-4.64,9.63,21,21,0,0,0-1.8,7.57c0,3.32,1.31,5,4,5q3.61,0,8.51-3.44a86,86,0,0,0,10.75-9.21,176.14,176.14,0,0,0,12.22-13.5q6.36-7.74,12.9-16.34l1,.69-13.42,17.11a163,163,0,0,1-13,14.8,70.48,70.48,0,0,1-12.9,10.4,24.89,24.89,0,0,1-13.16,4q-5.85,0-8.95-1.89a12,12,0,0,1-4.55-4.73,15.6,15.6,0,0,1-1.72-5.94c-.17-2.06-.26-3.89-.26-5.5l-.52-.35q-2.75,3.27-5.93,6.54a49,49,0,0,1-7,5.93,37.41,37.41,0,0,1-7.91,4.3,23.57,23.57,0,0,1-8.77,1.64q-8.26,0-12.47-4.9t-4.21-15.74a36.3,36.3,0,0,1,3.78-15.57,49.08,49.08,0,0,1,10.75-14.62A58.36,58.36,0,0,1,241,482.6a51.39,51.39,0,0,1,21.15-4.3q6.71,0,10.24,3.35A15.53,15.53,0,0,1,277,490h.35l4.47-8.95Zm-68.28,56.42q3.62,0,9.29-4.64a70.79,70.79,0,0,0,11.18-11.87,85,85,0,0,0,9.46-15.74,38.53,38.53,0,0,0,3.95-16.25q0-4-2.32-5.94a7.89,7.89,0,0,0-5.24-2,13.38,13.38,0,0,0-7.31,2.41,35.41,35.41,0,0,0-7.23,6.45,71.68,71.68,0,0,0-6.7,9.12,87.86,87.86,0,0,0-5.59,10.32,65.15,65.15,0,0,0-3.79,10.4,35.79,35.79,0,0,0-1.37,9.12,15.68,15.68,0,0,0,1.11,5.76A4.43,4.43,0,0,0,237.94,536.78Z"/><path class="cls-11" d="M292.29,542.28,327,481.05l24.77-.69-26.32,38.88.34.34a167.4,167.4,0,0,1,17.63-21.84q8.18-8.26,14.37-10.84a44,44,0,0,1,4.29-4.64A14,14,0,0,1,367,479.5a35.34,35.34,0,0,1,8.08-1.46q5.07-.42,13.85-.77a55.26,55.26,0,0,0-4.13,4.64,46.67,46.67,0,0,0-3.79,5.51,35.79,35.79,0,0,0-2.83,6,17.54,17.54,0,0,0-1.12,6,13,13,0,0,0,1.81,6.7,6.16,6.16,0,0,0,5.76,3.1,12.81,12.81,0,0,0,5.16-1.12,24.7,24.7,0,0,0,5-2.92,38.36,38.36,0,0,0,4.55-4c1.44-1.49,2.73-2.93,3.87-4.3l1.21,1c-.81.92-1.95,2.26-3.44,4a30.19,30.19,0,0,1-5.94,5.25,39.26,39.26,0,0,1-9.11,4.55,38,38,0,0,1-13,2,21.44,21.44,0,0,1-7.57-1.29,18.33,18.33,0,0,1-5.76-3.35,14.75,14.75,0,0,1-3.61-4.82,13.58,13.58,0,0,1-1.29-5.85,19.29,19.29,0,0,1,1.38-8.08V490a47.13,47.13,0,0,0-11.27,9.11,155.27,155.27,0,0,0-11.87,14q-5.76,7.65-10.49,15.31a129.81,129.81,0,0,0-7.14,12.81Z"/><path class="cls-12" d="M466.7,420.85q-17.2,28.56-29.41,48.33t-20,33.11q-7.83,13.33-11.52,21.16T402,535.92a3.75,3.75,0,0,0,1.12,2.92,3.57,3.57,0,0,0,2.49,1q4,0,10-4.39a102.52,102.52,0,0,0,12.47-10.92,187,187,0,0,0,12.47-14,160,160,0,0,0,10-13.67l1.38.68q-1.2,1.72-4,5.85t-6.88,9.38q-4.12,5.25-9.2,10.75a110.34,110.34,0,0,1-10.66,10.14,61.87,61.87,0,0,1-11.53,7.66,25.93,25.93,0,0,1-11.78,3q-7.23,0-10.83-3.61a12.37,12.37,0,0,1-3.62-9.12,29.29,29.29,0,0,1,1.21-8,70,70,0,0,1,3.87-10q2.66-5.76,7.05-13.59t10.84-18.66q6.43-10.84,15.13-25.29t19.87-33.54Z"/><path class="cls-13" d="M480,480.36q-5.52,8.77-10.84,17t-9.46,15.4q-4.12,7.14-6.62,12.64t-2.5,8.77a8.63,8.63,0,0,0,.86,4,3.2,3.2,0,0,0,3.1,1.64,14.4,14.4,0,0,0,7.48-2.5,58.32,58.32,0,0,0,8.34-6.36,104.07,104.07,0,0,0,8.6-8.77q4.3-4.9,8.09-9.64t6.79-8.94q3-4.21,4.9-6.79l1.38.51q-4.12,5.85-10.32,14.19a157.54,157.54,0,0,1-13.93,16.26,82.82,82.82,0,0,1-14.62,12.29,27.55,27.55,0,0,1-15,4.22q-7.05,0-10.66-4T432,529q0-7.74,6.62-19.35t16.77-28.64Zm-8.78-26.83a12,12,0,1,1,3.53,8.52A11.61,11.61,0,0,1,471.17,453.53Z"/><path class="cls-14" d="M574,498.08q-4,5.67-8.86,11.44T554.08,521.3Q542.21,532.66,531,538.5a53,53,0,0,1-24.94,5.85q-11.86,0-18.06-5.51t-6.19-16a31.42,31.42,0,0,1,5.16-17.2,55.17,55.17,0,0,1,13-14.11,69.66,69.66,0,0,1,17-9.63,47.78,47.78,0,0,1,17.46-3.61q8.25,0,13.59,2.67a9,9,0,0,1,5.33,8.68q0,6-5.85,10.49a57.56,57.56,0,0,1-13.84,7.66A122.61,122.61,0,0,1,517.61,513q-8.08,2-12.72,3a34,34,0,0,0-.52,3.44,33,33,0,0,0-.17,3.44,27.17,27.17,0,0,0,.69,6.1,13.94,13.94,0,0,0,2.32,5.25,12,12,0,0,0,4.3,3.61,14.27,14.27,0,0,0,6.62,1.38q8.08,0,17.37-5.94a127.29,127.29,0,0,0,18.75-14.87A143.35,143.35,0,0,0,564.83,507q4.56-5.49,7.65-10Zm-37.84-12.9q0-4.81-4.82-4.82-3.78,0-8.17,3.87a49.54,49.54,0,0,0-8.08,9.29,85.45,85.45,0,0,0-6.45,11.1,38.56,38.56,0,0,0-3.44,9.46,47.52,47.52,0,0,0,13-4.73,45,45,0,0,0,9.8-7.14,28.87,28.87,0,0,0,6.11-8.43A20.58,20.58,0,0,0,536.19,485.18Z"/></g></g></svg>