<svg xmlns="http://www.w3.org/2000/svg" xmlns:xlink="http://www.w3.org/1999/xlink" viewBox="0 0 472.67 448.77"><defs><style>.cls-1{fill:url(#New_Gradient_Swatch_1);}.cls-2{fill:url(#New_Gradient_Swatch_1-2);}.cls-3{fill:url(#New_Gradient_Swatch_1-3);}.cls-4{fill:url(#New_Gradient_Swatch_1-4);}.cls-5{fill:url(#New_Gradient_Swatch_1-5);}.cls-6{fill:url(#New_Gradient_Swatch_1-6);}.cls-7{fill:url(#New_Gradient_Swatch_1-7);}.cls-8{fill:url(#New_Gradient_Swatch_1-8);}.cls-9{fill:url(#New_Gradient_Swatch_1-9);}.cls-10{fill:url(#New_Gradient_Swatch_1-10);}.cls-11{fill:url(#New_Gradient_Swatch_1-11);}.cls-12{fill:url(#New_Gradient_Swatch_1-12);}.cls-13{fill:url(#New_Gradient_Swatch_1-13);}.cls-14{fill:url(#New_Gradient_Swatch_1-14);}</style><linearGradient id="New_Gradient_Swatch_1" y1="52.31" x2="165.99" y2="52.31" gradientUnits="userSpaceOnUse"><stop offset="0.01" stop-color="#401617"/><stop offset="0.08" stop-color="#6b4c2d"/><stop offset="0.38" stop-color="#a58a55"/><stop offset="0.65" stop-color="#a38855"/><stop offset="0.75" stop-color="#9e8156"/><stop offset="0.8" stop-color="#967857"/><stop offset="0.96" stop-color="#814f2f"/></linearGradient><linearGradient id="New_Gradient_Swatch_1-2" x1="97.1" y1="76.83" x2="201" y2="76.83" xlink:href="#New_Gradient_Swatch_1"/><linearGradient id="New_Gradient_Swatch_1-3" x1="133.81" y1="98.94" x2="276.55" y2="98.94" xlink:href="#New_Gradient_Swatch_1"/><linearGradient id="New_Gradient_Swatch_1-4" x1="249.62" y1="75.55" x2="342.04" y2="75.55" xlink:href="#New_Gradient_Swatch_1"/><linearGradient id="New_Gradient_Swatch_1-5" x1="325.31" y1="61.66" x2="381.45" y2="61.66" xlink:href="#New_Gradient_Swatch_1"/><linearGradient id="New_Gradient_Swatch_1-6" x1="365.14" y1="53.16" x2="472.17" y2="53.16" xlink:href="#New_Gradient_Swatch_1"/><linearGradient id="New_Gradient_Swatch_1-7" x1="176.15" y1="236.66" x2="297.41" y2="236.66" xlink:href="#New_Gradient_Swatch_1"/><linearGradient id="New_Gradient_Swatch_1-8" x1="10.56" y1="396.46" x2="117.72" y2="396.46" xlink:href="#New_Gradient_Swatch_1"/><linearGradient id="New_Gradient_Swatch_1-9" x1="85.26" y1="397.32" x2="188.31" y2="397.32" xlink:href="#New_Gradient_Swatch_1"/><linearGradient id="New_Gradient_Swatch_1-10" x1="172.58" y1="420.99" x2="267.13" y2="420.99" xlink:href="#New_Gradient_Swatch_1"/><linearGradient id="New_Gradient_Swatch_1-11" x1="240.48" y1="419.71" x2="332.9" y2="419.71" xlink:href="#New_Gradient_Swatch_1"/><linearGradient id="New_Gradient_Swatch_1-12" x1="315.6" y1="397.32" x2="384.21" y2="397.32" xlink:href="#New_Gradient_Swatch_1"/><linearGradient id="New_Gradient_Swatch_1-13" x1="355.58" y1="405.82" x2="411.71" y2="405.82" xlink:href="#New_Gradient_Swatch_1"/><linearGradient id="New_Gradient_Swatch_1-14" x1="396.69" y1="420.99" x2="472.67" y2="420.99" xlink:href="#New_Gradient_Swatch_1"/></defs><g id="Layer_2" data-name="Layer 2"><g id="Layer_2-2" data-name="Layer 2"><path class="cls-1" d="M74.7,31a23.19,23.19,0,0,1,2.55,4.89,15.76,15.76,0,0,1,1,5.6,17.21,17.21,0,0,1-2.91,9.85A25.78,25.78,0,0,1,68,58.61a36.11,36.11,0,0,1-9.57,4.47,33.69,33.69,0,0,1-9.71,1.56A20,20,0,0,1,41,63.15a19.59,19.59,0,0,1-6.17-4A18.14,18.14,0,0,1,30.69,53a20,20,0,0,1-1.49-7.79,25,25,0,0,1,6.31-17.29,49,49,0,0,1,16.16-11.7A101.3,101.3,0,0,1,73.36,9.07a222.12,222.12,0,0,1,23-3.75q11.13-1.22,20-1.42T129,3.69a100.73,100.73,0,0,0,11.7-.57c3.16-.38,5.9-.8,8.22-1.28s4.32-.89,6-1.27a22.77,22.77,0,0,1,5-.57,10.69,10.69,0,0,1,4.32.78A2.78,2.78,0,0,1,166,3.54c0,1-.64,1.8-1.91,2.27a13.18,13.18,0,0,1-4.61.71,48.23,48.23,0,0,1-7-.42A29.93,29.93,0,0,0,148,5.67a22.57,22.57,0,0,0-11.48,3.4,52,52,0,0,0-11.7,9.78A117.63,117.63,0,0,0,113,34.37a210.74,210.74,0,0,0-11.77,20.77A116.43,116.43,0,0,1,86.4,78,80.48,80.48,0,0,1,69.46,93.34a65.49,65.49,0,0,1-18.71,8.58,75.69,75.69,0,0,1-20.13,2.69,46.15,46.15,0,0,1-12-1.49,33,33,0,0,1-9.71-4.18,21.69,21.69,0,0,1-6.52-6.45A15,15,0,0,1,0,84.2a10.69,10.69,0,0,1,3.12-8,10.89,10.89,0,0,1,7.94-3q4.11,0,6,2.84A11.12,11.12,0,0,1,19,82.36,7.09,7.09,0,0,1,17.44,87a7.93,7.93,0,0,1-3.83,2.63q.71,6.66,5.24,10t11.77,3.33a32.57,32.57,0,0,0,18-5.1A62.7,62.7,0,0,0,62.8,85.26,99.65,99.65,0,0,0,73.71,69.32q4.68-8.5,8.36-15.31A143,143,0,0,1,93.48,35.93a74,74,0,0,1,28.43-23A134.51,134.51,0,0,1,142,5.67l-.14-.28q-9.91,0-21,.71t-22,2.41A168.94,168.94,0,0,0,78.18,13a72.27,72.27,0,0,0-17.3,7.3A39.66,39.66,0,0,0,49,31a23.93,23.93,0,0,0-4.46,14.39,14.68,14.68,0,0,0,3.61,10.06,12.1,12.1,0,0,0,9.57,4.12,15.86,15.86,0,0,0,7-1.63,24.17,24.17,0,0,0,6-4.19A19.81,19.81,0,0,0,75,48a14,14,0,0,0,1.56-6.16,17,17,0,0,0-3.12-10.07Z"/><path class="cls-2" d="M97.1,102.34l29.34-50.18,20.13-.85Q136.35,65.49,127,80.23l.28.28q3.69-4.67,8.22-10.06a106.78,106.78,0,0,1,9.57-10,61.07,61.07,0,0,1,10.35-7.73A20.71,20.71,0,0,1,166,49.61a14.34,14.34,0,0,1,9,2.77q3.62,2.76,3.61,8.43a19.12,19.12,0,0,1-2.9,9.64,104.72,104.72,0,0,1-6.45,9.71c-2.36,3.17-4.52,6.19-6.45,9.07s-2.91,5.41-2.91,7.59a4.09,4.09,0,0,0,.78,2.48,2.87,2.87,0,0,0,2.48,1.06q3.12,0,7.09-2.91a70.46,70.46,0,0,0,8.22-7.15q3.27-3.27,6.52-7t6.1-7.23c1.89-2.32,3.59-4.44,5.1-6.38s2.69-3.47,3.55-4.61l1.27.71Q196.19,72.16,190.72,79t-11,12.47a59.25,59.25,0,0,1-11.27,9.28,21.16,21.16,0,0,1-11.13,3.34q-6.37,0-9.57-3.76a14.51,14.51,0,0,1-3.19-9.71,18.62,18.62,0,0,1,2.77-9.71,67.62,67.62,0,0,1,6.16-8.65q3.41-4,6.17-7.44c1.84-2.27,2.76-4.39,2.76-6.38,0-2.64-1.27-4-3.82-4-1.7,0-3.78.88-6.24,2.62a63.78,63.78,0,0,0-7.94,6.88q-4.24,4.25-8.64,9.5t-8.3,10.49q-3.9,5.24-6.8,9.92a81.67,81.67,0,0,0-4.32,7.65Z"/><path class="cls-3" d="M182.15,89.16A30.62,30.62,0,0,1,185.9,74.7,47.81,47.81,0,0,1,195.68,62a50.08,50.08,0,0,1,13.54-9,36.61,36.61,0,0,1,15.17-3.4,18.78,18.78,0,0,1,8,1.63q3.47,1.63,5.88,6.74l3.4-6.67,19.71-.85Q254,63.09,246.71,75.2T232.18,99.65a62.57,62.57,0,0,0,12.55-6,94.41,94.41,0,0,0,11.41-8.37,125.51,125.51,0,0,0,10.28-9.85q4.89-5.23,9.14-10.49l1,1q-4.24,5.4-9.5,10.92A126.87,126.87,0,0,1,256,87.18a102.25,102.25,0,0,1-12.12,8.64,55.6,55.6,0,0,1-13,5.82,94.77,94.77,0,0,1-12.76,19.56,85.89,85.89,0,0,1-16,14.67,70.93,70.93,0,0,1-17.93,9.21,58,58,0,0,1-18.85,3.19,58.87,58.87,0,0,1-11.48-1.13,34.78,34.78,0,0,1-10.14-3.62,21.59,21.59,0,0,1-7.23-6.38,17.38,17.38,0,0,1-1.27-16.44,15.24,15.24,0,0,1,4.6-5.6,22.79,22.79,0,0,1,8.08-3.75A45.85,45.85,0,0,1,159.89,110H169v1.7h-3.12q-6.79,0-10.91,4T150.82,128a22.9,22.9,0,0,0,1.13,7.23,16.46,16.46,0,0,0,8.58,9.85,15.47,15.47,0,0,0,6.87,1.49q8.65,0,16.52-6.38a76.71,76.71,0,0,0,14.81-16.58L220.42,92l-.28-.29a36.63,36.63,0,0,1-11.42,9.07,29,29,0,0,1-13.25,3.27q-6.37,0-9.85-4.19A16.14,16.14,0,0,1,182.15,89.16Zm18.42,2.13a12.46,12.46,0,0,0,.93,4.89c.61,1.46,2,2.2,4.18,2.2a11.74,11.74,0,0,0,6.23-2.06,32.65,32.65,0,0,0,6.38-5.39,58.93,58.93,0,0,0,6-7.58,63.91,63.91,0,0,0,4.89-8.72A69.65,69.65,0,0,0,232.47,66a25.77,25.77,0,0,0,1.27-7.44A7.52,7.52,0,0,0,232,53.23a6,6,0,0,0-4.61-1.92,11.37,11.37,0,0,0-6.09,2,32,32,0,0,0-6.1,5.17,53.52,53.52,0,0,0-5.67,7.37,64,64,0,0,0-4.67,8.65,56.58,56.58,0,0,0-3.12,8.79A31.53,31.53,0,0,0,200.57,91.29Z"/><path class="cls-4" d="M249.62,102.34l28.63-50.46,20.41-.57L277,83.35l.28.28a138.34,138.34,0,0,1,14.53-18q6.73-6.81,11.83-8.93a38.2,38.2,0,0,1,3.55-3.83,11.34,11.34,0,0,1,4-2.26,28.6,28.6,0,0,1,6.66-1.21q4.19-.34,11.41-.64a47,47,0,0,0-3.4,3.83,38.33,38.33,0,0,0-3.12,4.54,30.25,30.25,0,0,0-2.34,5,14.64,14.64,0,0,0-.92,5A10.82,10.82,0,0,0,321,72.58a5.08,5.08,0,0,0,4.75,2.55,10.68,10.68,0,0,0,4.25-.92,20.53,20.53,0,0,0,4.11-2.41,31.78,31.78,0,0,0,3.76-3.33q1.77-1.84,3.19-3.55l1,.85q-1,1.14-2.84,3.33a24.76,24.76,0,0,1-4.89,4.33,32.65,32.65,0,0,1-7.51,3.75,31.2,31.2,0,0,1-10.7,1.63,17.61,17.61,0,0,1-6.24-1.06A15.12,15.12,0,0,1,305.11,75a12.21,12.21,0,0,1-3-4,11.2,11.2,0,0,1-1.07-4.82,15.83,15.83,0,0,1,1.14-6.66v-.29a39,39,0,0,0-9.29,7.51,128.29,128.29,0,0,0-9.78,11.56q-4.75,6.3-8.64,12.61a106,106,0,0,0-5.89,10.56Z"/><path class="cls-5" d="M364.86,51.31q-4.53,7.23-8.93,14T348.13,78q-3.39,5.89-5.45,10.42a19,19,0,0,0-2.06,7.23,7.07,7.07,0,0,0,.71,3.33,2.62,2.62,0,0,0,2.55,1.35,11.85,11.85,0,0,0,6.17-2.06,47.17,47.17,0,0,0,6.87-5.24A87.17,87.17,0,0,0,364,85.83q3.54-4,6.66-7.94t5.6-7.37q2.48-3.47,4-5.6l1.14.43Q378,70.17,372.94,77a129.58,129.58,0,0,1-11.48,13.4,68.19,68.19,0,0,1-12,10.13,22.69,22.69,0,0,1-12.33,3.48q-5.82,0-8.79-3.34t-3-9.28q0-6.37,5.46-16t13.82-23.6ZM357.63,29.2a9.93,9.93,0,0,1,19.85,0,9.93,9.93,0,0,1-19.85,0Z"/><path class="cls-6" d="M472.17,2.27q-11.91,19.85-20.49,34.09T437.15,60.6q-5.94,10-9.49,16.3c-2.37,4.21-4.18,7.58-5.46,10.13a42.24,42.24,0,0,0-2.55,5.89,12.24,12.24,0,0,0-.64,3.61,4.1,4.1,0,0,0,.92,2.77,3.65,3.65,0,0,0,2.91,1.06c1.6,0,3.87-.94,6.8-2.84a53.87,53.87,0,0,0,8.93-7.37,127.91,127.91,0,0,0,12.26-14q5.18-6.95,8-10.91l1.28.7q-3.27,4.68-8.86,12.12a133.65,133.65,0,0,1-13.11,14.82,48.38,48.38,0,0,1-11.2,8.57,22.68,22.68,0,0,1-10.49,2.63,11.37,11.37,0,0,1-8.72-3.41,11.91,11.91,0,0,1-3.19-8.5,9.59,9.59,0,0,1,.71-3.4l-.28-.29a54.72,54.72,0,0,1-11.41,11,25.56,25.56,0,0,1-15.24,4.61q-6.68,0-9.92-4.4a16.86,16.86,0,0,1-3.27-10.35,31.12,31.12,0,0,1,4.05-15.45A45.25,45.25,0,0,1,379.6,61.24a51.24,51.24,0,0,1,14.25-8.51,41.88,41.88,0,0,1,15.52-3.12,10.25,10.25,0,0,1,7.37,2.7,13.48,13.48,0,0,1,3.83,6.8L451.75,3.69ZM416.32,58.54a10,10,0,0,0-1.21-5.24c-.8-1.32-2.29-2-4.46-2q-4.26,0-9,4.26a53,53,0,0,0-8.79,10.34,67.73,67.73,0,0,0-6.67,12.83,33.24,33.24,0,0,0-2.62,11.7,10.89,10.89,0,0,0,1.14,5.31,4,4,0,0,0,3.82,2.06,12.4,12.4,0,0,0,6.74-2.13,31.62,31.62,0,0,0,6.45-5.6,50.68,50.68,0,0,0,5.74-7.86,93.1,93.1,0,0,0,4.6-8.72,57.08,57.08,0,0,0,3.12-8.29A25,25,0,0,0,416.32,58.54Z"/><path class="cls-7" d="M297.41,252.18a33.47,33.47,0,0,1-4.93,9.28,35.86,35.86,0,0,1-9.07,8.56,51.58,51.58,0,0,1-13.49,6.24,61.85,61.85,0,0,1-18.35,2.46,65.81,65.81,0,0,1-15.3-1.81,41.8,41.8,0,0,1-14-6.17,54,54,0,0,1-11.6,5.81,37.25,37.25,0,0,1-12.62,2.17,26.65,26.65,0,0,1-8.34-1.3,21,21,0,0,1-7-3.85,18,18,0,0,1-4.79-6.23,19.39,19.39,0,0,1-1.74-8.34,21.79,21.79,0,0,1,2.68-11,30,30,0,0,1,7-8.26,47.23,47.23,0,0,1,9.51-6.1,91.74,91.74,0,0,1,10.29-4.27,53.44,53.44,0,0,1,4.06-11.83,47.55,47.55,0,0,1,7.48-11.31,39.36,39.36,0,0,1,10.44-8.41,25.92,25.92,0,0,1,12.84-3.27A11.93,11.93,0,0,1,248,197.2q3.33,2.63,3.33,7.69a11.33,11.33,0,0,1-3.62,8.34A36.18,36.18,0,0,1,239,219.4a71.5,71.5,0,0,1-10.45,4.42q-5.43,1.81-8.92,3.12a47.19,47.19,0,0,0,3.56,18A47.68,47.68,0,0,0,232.86,260q4.94-5.51,9.14-11.17a117.85,117.85,0,0,1,8.41-10.15,44.58,44.58,0,0,1,8.71-7.33,18.68,18.68,0,0,1,10.15-2.82c3.58,0,6.4.89,8.48,2.68a9.5,9.5,0,0,1,3.12,7.61,8.75,8.75,0,0,1-2.24,5.81,7.39,7.39,0,0,1-5.88,2.61,8.24,8.24,0,0,1-5.44-1.74q-2.1-1.74-2.1-5.52a6.66,6.66,0,0,1,.87-3.48,10,10,0,0,1,2.32-2.61,4.07,4.07,0,0,0-1.38-.65,8.6,8.6,0,0,0-2.68-.36,11.36,11.36,0,0,0-6.24,2.1,39.82,39.82,0,0,0-6.82,5.95c-2.41,2.56-5,5.58-7.83,9.06s-5.9,7.25-9.28,11.32A45.16,45.16,0,0,0,247.73,271a35.46,35.46,0,0,0,14.87,3.34,36.93,36.93,0,0,0,12-1.89,36.31,36.31,0,0,0,9.86-5.07,33.81,33.81,0,0,0,7.32-7.25,33,33,0,0,0,4.57-8.56Zm-105.6,1q0,8.56,4.57,14.15t13.86,5.58a22.47,22.47,0,0,0,5.51-.73,14.2,14.2,0,0,0,5.07-2.32A42.75,42.75,0,0,1,209,255.59a39.61,39.61,0,0,1-4.13-18.06c0-1.06,0-2.15.07-3.27a25,25,0,0,1,.36-3.26,23.09,23.09,0,0,0-10.15,9.07A25.63,25.63,0,0,0,191.81,253.19Zm45.55-47.72a13.1,13.1,0,0,0-1.09-5.73,3.68,3.68,0,0,0-3.55-2.24,6.62,6.62,0,0,0-4.43,2.1,22.45,22.45,0,0,0-4.2,5.66,37.52,37.52,0,0,0-4.43,17.62v2.46a27.55,27.55,0,0,0,12.55-6.81Q237.35,213.6,237.36,205.47Z"/><path class="cls-8" d="M79.31,359a21.16,21.16,0,0,0-2.84,3.83,12.32,12.32,0,0,0-1.56,6.52,11.46,11.46,0,0,0,3.27,8.5,10.94,10.94,0,0,0,8.08,3.27,15,15,0,0,0,8.36-2.49,24.49,24.49,0,0,0,6.59-6.3,30.3,30.3,0,0,0,4.25-8.37,27.4,27.4,0,0,0,1.49-8.5q0-5.25-2.91-7.44a12.69,12.69,0,0,0-7.86-2.2,40.68,40.68,0,0,0-15.38,3.19,66.09,66.09,0,0,0-15.17,8.72,90.29,90.29,0,0,0-13.75,13,92.41,92.41,0,0,0-11.2,16.09,90.69,90.69,0,0,0-7.51,17.93,64.62,64.62,0,0,0-2.76,18.5,30.32,30.32,0,0,0,1.2,8.64,23.3,23.3,0,0,0,3.46,7.23,17.92,17.92,0,0,0,5.3,5,12.66,12.66,0,0,0,6.71,1.84,23.26,23.26,0,0,0,10.67-2.62A34.33,34.33,0,0,0,67,436.44a34,34,0,0,0,6.58-9.78,28.18,28.18,0,0,0,1.83-17.51,16.49,16.49,0,0,0-2-5.1A11.14,11.14,0,0,0,70,400.5a9,9,0,0,0-5-1.34,12.09,12.09,0,0,0-9.21,3.75,26.69,26.69,0,0,0-5.46,8.72,46.16,46.16,0,0,0-2.62,9.64,50,50,0,0,0-.71,6.66h-1.7a47.44,47.44,0,0,1,1.49-11.48,37,37,0,0,1,4.68-11,26.15,26.15,0,0,1,8.22-8.23,21.92,21.92,0,0,1,12-3.19,19.26,19.26,0,0,1,7.09,1.28,17,17,0,0,1,5.67,3.61,17.67,17.67,0,0,1,3.83,5.53,17.2,17.2,0,0,1,1.42,7A26.87,26.87,0,0,1,85.77,425a43.46,43.46,0,0,1-10.33,12,54.65,54.65,0,0,1-14.79,8.51,47.14,47.14,0,0,1-17.26,3.26q-17,0-24.91-8.29T10.56,417a42.83,42.83,0,0,1,4-17.65,76,76,0,0,1,10.56-16.94,106.19,106.19,0,0,1,15.17-15.1,120.13,120.13,0,0,1,17.93-12.19,100.75,100.75,0,0,1,18.71-8.08,59.24,59.24,0,0,1,17.44-2.9,56.56,56.56,0,0,1,8.5.64,22.55,22.55,0,0,1,7.51,2.41,14.37,14.37,0,0,1,5.32,5,15.06,15.06,0,0,1,2,8.29,18.3,18.3,0,0,1-2.19,8.58,24.46,24.46,0,0,1-6,7.37,31,31,0,0,1-8.86,5.1,30,30,0,0,1-10.7,1.91,25.37,25.37,0,0,1-6.31-.78,15.35,15.35,0,0,1-5.38-2.48,12.06,12.06,0,0,1-3.69-4.32,13.64,13.64,0,0,1-1.35-6.31,15.48,15.48,0,0,1,1.21-5.81,16.44,16.44,0,0,1,3.76-5.53Z"/><path class="cls-9" d="M85.26,446.5Q99.87,421.84,114,397.24t28.77-49.4l20.27-1.41q-11.76,19.69-23.74,39.69t-24,38.13l.29.28q3.25-4.39,7.58-9.71a93.5,93.5,0,0,1,9.43-10A58.12,58.12,0,0,1,143.38,397a22.91,22.91,0,0,1,11.34-3.19,13.69,13.69,0,0,1,8.15,2.48q3.47,2.49,3.47,8.29a20.91,20.91,0,0,1-2.9,10.28,91.57,91.57,0,0,1-6.45,9.92q-3.56,4.75-6.45,9t-2.91,7.38a3.72,3.72,0,0,0,.78,2.48,2.91,2.91,0,0,0,2.34.92,12.27,12.27,0,0,0,6.45-2.34,52.05,52.05,0,0,0,7.37-5.88,101.22,101.22,0,0,0,7.44-7.87q3.69-4.32,6.81-8.22t5.38-6.95q2.27-3,3.26-4.18l.85.71c-1.6,2-3.38,4.3-5.31,6.94s-4.07,5.42-6.38,8.3-4.75,5.69-7.3,8.43a81.36,81.36,0,0,1-7.87,7.44,38.14,38.14,0,0,1-8.36,5.32,20.76,20.76,0,0,1-8.72,2,10.61,10.61,0,0,1-4.82-1.06,10.39,10.39,0,0,1-3.54-2.83,12.13,12.13,0,0,1-2.13-4.12,16.3,16.3,0,0,1-.71-4.74,19.82,19.82,0,0,1,2.7-10.07,81,81,0,0,1,5.88-8.86q3.18-4.17,5.81-7.79t2.62-6.6c0-2.36-1.08-3.54-3.26-3.54q-2.55,0-6.16,2.34a52.1,52.1,0,0,0-7.66,6.24,118.79,118.79,0,0,0-8.22,8.86q-4.18,5-8,10.2t-7,10.28a92.49,92.49,0,0,0-5.17,9.14Z"/><path class="cls-10" d="M252,395.47c-1,1.52-2.39,3.45-4,5.81s-3.43,4.92-5.32,7.66-3.78,5.6-5.67,8.57-3.61,5.89-5.17,8.72a74.25,74.25,0,0,0-3.83,7.94,17.37,17.37,0,0,0-1.49,6.24q0,4.11,3.26,4.11,3,0,7-2.84a71.09,71.09,0,0,0,8.86-7.58A145,145,0,0,0,255.64,423q5.25-6.37,10.64-13.46l.85.56q-5.69,7.23-11.06,14.11a136.55,136.55,0,0,1-10.7,12.19,58.39,58.39,0,0,1-10.64,8.57,20.42,20.42,0,0,1-10.84,3.26q-4.81,0-7.37-1.56a9.92,9.92,0,0,1-3.76-3.89,13,13,0,0,1-1.41-4.89c-.14-1.71-.22-3.22-.22-4.54l-.42-.28c-1.51,1.79-3.14,3.59-4.89,5.38a40.73,40.73,0,0,1-5.74,4.89,31.17,31.17,0,0,1-6.52,3.55,19.63,19.63,0,0,1-7.23,1.34q-6.81,0-10.28-4t-3.47-13a29.86,29.86,0,0,1,3.12-12.82,40.12,40.12,0,0,1,8.86-12.05,47.88,47.88,0,0,1,13.67-9,42.22,42.22,0,0,1,17.44-3.55c3.68,0,6.5.92,8.43,2.77a12.82,12.82,0,0,1,3.76,6.87h.28l3.69-7.37ZM195.68,442q3,0,7.66-3.83a57.53,57.53,0,0,0,9.21-9.78,70,70,0,0,0,7.8-13,31.85,31.85,0,0,0,3.26-13.4,6.09,6.09,0,0,0-1.91-4.89,6.54,6.54,0,0,0-4.33-1.63,11,11,0,0,0-6,2,28.83,28.83,0,0,0-6,5.31,58.81,58.81,0,0,0-5.52,7.51,74.25,74.25,0,0,0-4.61,8.51,52.36,52.36,0,0,0-3.12,8.58,29.38,29.38,0,0,0-1.13,7.51,12.74,12.74,0,0,0,.92,4.75A3.62,3.62,0,0,0,195.68,442Z"/><path class="cls-11" d="M240.48,446.5,269.11,396l20.41-.57-21.69,32,.29.28a136.84,136.84,0,0,1,14.53-18q6.72-6.81,11.83-8.93A38.2,38.2,0,0,1,298,397a11.51,11.51,0,0,1,4-2.27,29.21,29.21,0,0,1,6.66-1.2q4.18-.36,11.41-.64a45.4,45.4,0,0,0-3.4,3.83,37.85,37.85,0,0,0-3.12,4.53,29.55,29.55,0,0,0-2.34,5,14.64,14.64,0,0,0-.92,5,10.79,10.79,0,0,0,1.49,5.52,5.07,5.07,0,0,0,4.75,2.56,10.72,10.72,0,0,0,4.25-.92A20.12,20.12,0,0,0,325,416a31.68,31.68,0,0,0,3.76-3.33c1.18-1.22,2.24-2.41,3.19-3.54l1,.85q-1,1.14-2.84,3.33a25,25,0,0,1-4.89,4.33,32.65,32.65,0,0,1-7.51,3.75A31.2,31.2,0,0,1,307,423a17.61,17.61,0,0,1-6.24-1.06,15,15,0,0,1-4.75-2.77,12.07,12.07,0,0,1-3-4,11.24,11.24,0,0,1-1.07-4.82,15.91,15.91,0,0,1,1.14-6.67v-.28a38.84,38.84,0,0,0-9.29,7.51A128.29,128.29,0,0,0,274,422.48q-4.75,6.3-8.65,12.61a107.63,107.63,0,0,0-5.88,10.56Z"/><path class="cls-12" d="M384.21,346.43Q370,370,360,386.26t-16.51,27.29Q337,424.53,334,431t-3,10.28a3.1,3.1,0,0,0,.93,2.41,3,3,0,0,0,2.05.85q3.25,0,8.22-3.62a85.17,85.17,0,0,0,10.28-9,154.07,154.07,0,0,0,10.28-11.55,132.83,132.83,0,0,0,8.22-11.27l1.13.57q-1,1.41-3.26,4.82t-5.67,7.72q-3.4,4.33-7.58,8.86a92.15,92.15,0,0,1-8.79,8.37,50.79,50.79,0,0,1-9.5,6.3,21.38,21.38,0,0,1-9.71,2.48c-4,0-6.94-1-8.93-3a10.22,10.22,0,0,1-3-7.52,24.16,24.16,0,0,1,1-6.59,58,58,0,0,1,3.19-8.22q2.19-4.74,5.81-11.2t8.93-15.38q5.31-8.93,12.47-20.83t16.37-27.65Z"/><path class="cls-13" d="M395.13,395.47q-4.54,7.23-8.93,14t-7.8,12.68q-3.4,5.88-5.46,10.42a18.94,18.94,0,0,0-2.05,7.23,7,7,0,0,0,.71,3.33,2.62,2.62,0,0,0,2.55,1.35,11.91,11.91,0,0,0,6.16-2.06,48.69,48.69,0,0,0,6.88-5.24,88.78,88.78,0,0,0,7.09-7.23q3.54-4,6.66-7.94t5.6-7.37c1.65-2.32,3-4.18,4-5.6l1.13.43q-3.4,4.82-8.5,11.69a130.76,130.76,0,0,1-11.49,13.4,68.17,68.17,0,0,1-12,10.13,22.78,22.78,0,0,1-12.34,3.47q-5.8,0-8.78-3.33t-3-9.28q0-6.39,5.46-15.95T374.86,396Zm-7.23-22.11a9.9,9.9,0,1,1,2.9,7A9.6,9.6,0,0,1,387.9,373.36Z"/><path class="cls-14" d="M472.67,410.07q-3.27,4.68-7.31,9.43t-9.14,9.71a85.05,85.05,0,0,1-19,14.17,43.63,43.63,0,0,1-20.56,4.82q-9.78,0-14.88-4.53t-5.1-13.19a25.86,25.86,0,0,1,4.25-14.17,45.38,45.38,0,0,1,10.7-11.62,57,57,0,0,1,14-7.94,39.36,39.36,0,0,1,14.39-3,24.93,24.93,0,0,1,11.2,2.2,7.44,7.44,0,0,1,4.39,7.16q0,5-4.81,8.64a47.75,47.75,0,0,1-11.42,6.31,98.92,98.92,0,0,1-13.25,4.25q-6.66,1.64-10.49,2.48a28.21,28.21,0,0,0-.42,2.84,27,27,0,0,0-.15,2.83,22.45,22.45,0,0,0,.57,5,11.8,11.8,0,0,0,1.91,4.32,10,10,0,0,0,3.55,3A11.87,11.87,0,0,0,426.6,444q6.66,0,14.31-4.89a104.39,104.39,0,0,0,15.45-12.26,116,116,0,0,0,8.72-9.36q3.75-4.53,6.31-8.22Zm-31.19-10.63c0-2.64-1.32-4-4-4-2.08,0-4.32,1.07-6.73,3.19a40.79,40.79,0,0,0-6.66,7.66,70,70,0,0,0-5.32,9.14,32.18,32.18,0,0,0-2.84,7.8,39.19,39.19,0,0,0,10.71-3.9,37.1,37.1,0,0,0,8.08-5.89,23.61,23.61,0,0,0,5-6.94A17,17,0,0,0,441.48,399.44Z"/></g></g></svg>