<svg xmlns="http://www.w3.org/2000/svg" xmlns:xlink="http://www.w3.org/1999/xlink" viewBox="0 0 1009.9 176.68"><defs><style>.cls-1{fill:url(#linear-gradient);}.cls-2{fill:url(#linear-gradient-2);}.cls-3{fill:url(#linear-gradient-3);}.cls-4{fill:url(#linear-gradient-4);}.cls-5{fill:url(#linear-gradient-5);}.cls-6{fill:url(#linear-gradient-6);}.cls-7{fill:url(#linear-gradient-7);}.cls-8{fill:url(#linear-gradient-8);}.cls-9{fill:url(#linear-gradient-9);}.cls-10{fill:url(#linear-gradient-10);}.cls-11{fill:url(#linear-gradient-11);}.cls-12{fill:url(#linear-gradient-12);}.cls-13{fill:url(#linear-gradient-13);}.cls-14{fill:url(#linear-gradient-14);}</style><linearGradient id="linear-gradient" y1="117.09" x2="54.2" y2="117.09" gradientTransform="matrix(1, 0, 0, -1, 0, 178)" gradientUnits="userSpaceOnUse"><stop offset="0.01" stop-color="#401617"/><stop offset="0.08" stop-color="#6b4c2d"/><stop offset="0.38" stop-color="#a58a55"/><stop offset="0.45" stop-color="#9d8156"/><stop offset="0.57" stop-color="#987a57"/><stop offset="0.89" stop-color="#967857"/><stop offset="1" stop-color="#814f2f"/></linearGradient><linearGradient id="linear-gradient-2" x1="26.32" y1="96.98" x2="103.7" y2="96.98" xlink:href="#linear-gradient"/><linearGradient id="linear-gradient-3" x1="85.21" y1="72.42" x2="226.53" y2="72.42" xlink:href="#linear-gradient"/><linearGradient id="linear-gradient-4" x1="219.44" y1="105.13" x2="262.34" y2="105.13" xlink:href="#linear-gradient"/><linearGradient id="linear-gradient-5" x1="254.17" y1="116.77" x2="343.42" y2="116.77" xlink:href="#linear-gradient"/><linearGradient id="linear-gradient-6" x1="362.63" y1="97.03" x2="439.06" y2="97.03" xlink:href="#linear-gradient"/><linearGradient id="linear-gradient-7" x1="426.87" y1="96.98" x2="504.28" y2="96.98" xlink:href="#linear-gradient"/><linearGradient id="linear-gradient-8" x1="497.01" y1="116.78" x2="586.29" y2="116.78" xlink:href="#linear-gradient"/><linearGradient id="linear-gradient-9" x1="611.06" y1="117.97" x2="693.45" y2="117.97" xlink:href="#linear-gradient"/><linearGradient id="linear-gradient-10" x1="679.52" y1="119.82" x2="755.72" y2="119.82" xlink:href="#linear-gradient"/><linearGradient id="linear-gradient-11" x1="750" y1="102.62" x2="880.99" y2="102.62" xlink:href="#linear-gradient"/><linearGradient id="linear-gradient-12" x1="875.5" y1="116.58" x2="932.54" y2="116.58" xlink:href="#linear-gradient"/><linearGradient id="linear-gradient-13" x1="912.58" y1="105.13" x2="955.43" y2="105.13" xlink:href="#linear-gradient"/><linearGradient id="linear-gradient-14" x1="949.64" y1="97.06" x2="1009.9" y2="97.06" xlink:href="#linear-gradient"/></defs><g id="Layer_2" data-name="Layer 2"><g id="Layer_1-2" data-name="Layer 1"><g id="Layer_2-2" data-name="Layer 2"><g id="Layer_2-2-2" data-name="Layer 2-2"><path class="cls-1" d="M52.82,7.83c2.41,5,2.24,13.24-5.15,26.31C37,52.89,18.08,86.09,5.53,114.29c-.69,1.73-1.38,1.9-2.76.35-2.4-2.58-4.47-8.6-.68-19.09C10.51,72.16,34.77,27.78,48.7,7.66,50.25,5.42,51.79,5.76,52.82,7.83Z"/><path class="cls-2" d="M84.64,46.18c5.68.86,11,9.29,6.71,18.24-3.61,7.56-12,20.29-16,29.24-4.47,10-3.44,18,2.75,17.71,7-.34,15.48-11.69,22-23.73.86-1.55,2.07-1.55,2.93-.18,1.2,1.9.86,5.85-1.55,10.84C96.86,107.93,86,116.7,76,116.7c-14.57,0-18-10.7-13-25.62C68.65,74.22,83.78,56,80.69,54.61,79,53.92,69,58.74,58,70.78c-10.15,11-17.72,27.52-25.12,43.69-.68,1.55-1.72,2.23-3.26.68-3.44-3.44-4.48-9.11-1.72-17.71C31.33,86.6,44.57,62.7,55.41,46.7c1.2-1.89,2.59-1.7,3.59,0,2.6,4.3,2.43,10.15.53,16.3C67.27,54.78,79,45.32,84.64,46.18Z"/><path class="cls-3" d="M110.79,115.67c-15.65,0-18.92-21.84-4.65-42.48C119.9,53.41,133.32,45.5,141.92,45.5c7.05,0,10.49,5.33,10.32,11.35,2.06-3.44,3.95-6.71,5.85-9.46,1.37-2.07,2.92-2.58,4.3-.86,2.4,2.92,3.61,10.15-.69,18.92-5,10-15.14,30.1-22.53,46.61,17.71-9.12,32.16-24.77,41.28-48.85-12.56-5.5,4.12-28.38,11-28.72,5.85-.35,4,10.15-.34,21.67,5.85-1,12-3.61,18.58-8.08,2.4-1.55,3.44-2.07,5-.35,3.27,3.79,7.74,11.53,2.58,17.37C209,74.39,200.4,85.92,197.47,95c-3.09,9.46-.86,16.34,4.3,16.51,7.06.35,15.83-10.83,21.5-23.73.69-1.38,1.9-1.72,2.58,0,.86,2.06,1.21,6.36-.86,11.18-4.3,10.32-14.62,17.88-24.08,17.54-13.07-.5-18.23-12.35-13.91-26.11,3.61-11.53,14.11-24.25,21.5-32.68-7.57,4.81-15.13,6.71-20.81,6.71-10.49,24.08-23.22,43.34-51.6,55-9.8,23-22,50.92-36.29,56.59-3.1,1.21-6.71,1.21-9.8-3.61-3.44-5.16-6.71-11.18-3.44-21.33,5-15.31,19.43-25.63,37-32.68,1.55-4,3.1-7.74,4.82-11.69C123.34,111.71,117.32,115.67,110.79,115.67ZM93.42,166.58c2.23,3.27,16-15,27.17-40.93C97.89,139.06,90.32,162.28,93.42,166.58ZM144.84,54.27c-5.5-.35-17.88,10.66-27.34,25.8C108.21,94.86,106.32,110,113,110s15.31-10.66,24.25-25.79C148.28,65.45,149.66,54.61,144.84,54.27Z"/><path class="cls-4" d="M221.55,91.08c4.3-12.56,15.65-32.86,22-41.8,1.55-2.06,2.75-2.58,4.13-1,2.58,2.75,4,10.15-.18,18.75-3.61,7.56-10.83,19.26-14.44,27.86-4.13,10-3.79,16.68,1.72,16.34,7.74-.35,17.2-11.7,22.36-23.56.86-1.55,2.06-1.38,2.75,0,1.37,2.75.86,6.36-1.21,10.66-5.16,10.66-16,17.89-25.62,17.89C220,116.19,216.74,105.18,221.55,91.08Zm38.36-44.9c-2.24,2.41-7.05,1.9-9.63-2.58-2.76-4.64-1.89-9.8.86-12.72s7.74-.86,10,3.78A10.39,10.39,0,0,1,259.91,46.18Z"/><path class="cls-5" d="M304.45,111.71c7.06-.34,16.34-11.86,22.36-23.73.86-1.55,2.07-1.55,2.76-.17.68,1.55.86,6-1.38,10.66-4.64,9.46-15.31,18.58-24.77,18.06-9.29-.51-13.93-5.68-13.93-13.76C284,109.65,276.25,116,268.16,116c-16,0-19.09-21.85-5-42.49,13.58-20,27.34-27.69,35.94-27.69,7,0,10.49,5.33,10.32,11.7C318.73,39.82,331.8,16.43,338,7.66c1.72-2.41,3.27-2.24,4.13,0,2.41,5.67,1.89,13.07-5.33,26C328.53,48.42,312,76.8,303.42,95,298.78,105,298.61,112.06,304.45,111.71Zm-29.92-31.3c-9.29,14.79-11.18,29.76-4.48,29.93,6.88.17,16.17-10,24.26-25.63,10-19.09,12.55-29.93,7.56-30.1C296.54,54.44,284,65.28,274.53,80.41Z"/><path class="cls-6" d="M424.51,47.22c1.54-2.24,2.92-2.58,4.12-1,2.58,3.1,4,10.5-.17,19.1C424.68,73,416.08,85.92,412,95c-4.3,9.63-4.47,17,1.38,16.68,7.05-.34,16.51-12,22.53-23.9.86-1.55,2.06-1.72,2.75-.17s.69,5.84-1.55,10.66c-4.47,9.46-15.31,18.92-24.77,18.4-9.28-.51-14.1-6-14.1-14.1C392.69,109.65,385,116,376.69,116c-16,0-19.26-21.85-5-42.66,13.93-20.3,27.52-28,36.12-28,7.4,0,10.84,5.68,10.49,12.39A120.74,120.74,0,0,1,424.51,47.22Zm-13.76,7.05c-5.51-.52-18.06,10.66-27.52,26-9.12,14.79-11.36,29.93-4.65,30.1,7.05.17,16-10.84,24.77-26C414.19,65.45,415.73,54.78,410.75,54.27Z"/><path class="cls-7" d="M485.22,46.18c5.68.86,11,9.29,6.71,18.24-3.61,7.56-12,20.29-16,29.24-4.47,10-3.44,18,2.75,17.71,7.06-.34,15.48-11.69,22-23.73.86-1.55,2.06-1.55,2.92-.18,1.21,1.9.86,5.85-1.54,10.84-4.65,9.63-15.48,18.4-25.46,18.4-14.62,0-18.06-10.66-13.07-25.62C469.2,74.22,484.34,56,481.24,54.61c-1.72-.69-11.69,4.13-22.7,16.17-10.15,11-17.71,27.52-25.11,43.69-.69,1.55-1.72,2.23-3.27.68-3.44-3.44-4.47-9.11-1.72-17.71C431.9,86.6,445.15,62.7,456,46.7c1.21-1.89,2.58-1.72,3.61,0,2.58,4.3,2.41,10.15.52,16.34C467.85,54.78,479.54,45.32,485.22,46.18Z"/><path class="cls-8" d="M547.31,111.71c7.05-.34,16.34-11.86,22.36-23.73.86-1.55,2.06-1.55,2.75-.17.69,1.55.86,6-1.37,10.66-4.65,9.46-15.31,18.58-24.77,18.06-9.29-.51-13.93-5.68-13.93-13.76C526.84,109.65,519.1,116,511,116c-16,0-19.09-21.85-5-42.49,13.59-20,27.35-27.69,36-27.69,7,0,10.49,5.33,10.32,11.7,9.29-17.72,22.36-41.11,28.55-49.88,1.72-2.41,3.27-2.24,4.13,0,2.41,5.67,1.89,13.07-5.33,26C571.39,48.42,554.88,76.8,546.28,95,541.64,105,541.46,112.06,547.31,111.71Zm-29.93-31.3c-9.28,14.79-11.18,29.76-4.47,29.93,6.88.17,16.17-10,24.25-25.63,10-19.09,12.56-29.93,7.57-30.1C539.4,54.44,526.84,65.28,517.38,80.41Z"/><path class="cls-9" d="M675.79,78.52c4.3,11.52-6.71,24.42-13.93,29.58-12.21,8.77-26.66,8.6-36,3.61-7.74-4.12-14.45-14.79-14.79-28.89-.69-36.46,29.93-67.6,49.19-75,9.29-3.61,17.72-4.3,23.22.51,3.78,3.27,7.74,8.26,9.11,12.56,1.55,5,1,9.8-1.54,15.14s-5,12-6.88,17c-.52,1.38-1.72,2.41-3.79,1-4-2.58-6.7-7.92-4.13-16.52,2.76-9.11,9-18.92,5-23-4.81-5.16-31,8.77-46.44,34.4-15.13,25.11-13.41,50.56-5,57.44,11,9,29.24-2.58,42.31-28.2C673,76.28,674.93,76.28,675.79,78.52Z"/><path class="cls-10" d="M728.08,116.36c-14.45,0-18.06-10.49-12.9-25.46,5.67-16.68,20.64-34.57,17.88-36.12-2.4-1.37-21.15,10.32-31.13,26.66a224.84,224.84,0,0,0-16.68,32.68c-.69,1.55-1.89,1.9-2.92.69-2.76-3.1-4.3-7.91-.69-18.23,6-17.2,41.79-77.74,55.72-95.12,1.55-2.06,3.27-1.89,4.13.18,2.24,5,1.72,13.58-4.81,24.42C732.55,32.94,723.43,46.87,716,58.4c7-6.88,16-12.56,20.64-12,5.84.68,11.18,9.28,6.71,18.06-3.79,7.56-12,20.12-16,29.06-4.3,10-3.44,18.06,2.92,17.72,7.05-.35,16.51-12.73,21.85-23.74a1.64,1.64,0,0,1,3.09-.17c.86,1.89.86,5.51-1.72,10.66C748.72,107.76,738.22,116.36,728.08,116.36Z"/><path class="cls-11" d="M764,115.5c-15.82,0-19.26-21.84-5-42.48,13.76-19.78,27.35-27.7,36.12-27.7,6.7,0,10.14,5.34,10.14,11.36,2.58-4.3,4.82-7.74,6-9.46,1.38-2.07,2.76-2.58,4.13-1,2.75,3.1,4,10.32.17,18.92C812.12,72.88,803,86.3,799.22,95.07c-4.12,9.8-3.44,16.17,1.9,15.65,11-1,26.48-22.18,34.57-47.47-13.93-5,2.41-28.38,9.29-28.89,5.33-.35,3.61,9.8,0,21.67,6.19-.69,12.55-3.61,19.09-8.09,2.41-1.72,3.61-2.06,5.16-.34,3.26,3.61,7.39,11.52,2.41,17.37C863.55,74.26,854.78,86.3,852,94.9c-2.93,9.46-1,16.17,4.3,16.51,7.22.52,15.82-10.83,21.33-23.73.68-1.38,1.89-1.72,2.58,0a15.2,15.2,0,0,1-.69,11.17c-4.47,10.33-14.62,17.89-24.08,17.55-13.07-.52-18.23-12.39-14.11-26.14,3.44-11.36,13.94-24.08,21.33-32.34-7.57,4.47-15,6.36-20.29,6.36-8.43,24.26-23.91,50.23-42.32,51.6-9.46.69-14.62-5.33-14.44-14.1C780.19,108.79,772.45,115.5,764,115.5Zm6.37-35.6c-9.29,14.79-11.18,29.75-4.47,29.92,6.88.17,15.82-10.32,24.59-25.8,10.67-18.74,12.21-29.58,7.23-29.92-5.32-.35-17.87,10.66-27.33,25.8Z"/><path class="cls-12" d="M890.61,111c8.26.68,20.3-11.7,27-24.94,1.2-2.24,3.09-2.41,3.78,0,.86,2.75.17,6.53-1.72,10.66-2.41,5.16-15,19.44-28.72,19.09-11.87-.34-18.23-8.6-14.28-27.17,6.37-29.93,26-61.06,43.52-79.29,2.58-2.76,5-3.1,7.39-.86,5,4.47,6,10.83,4,18.92-5.33,21.15-24.6,41.79-39.9,51.77C884.77,96.06,882.87,110.34,890.61,111ZM925.7,23.82c-2.23-1.37-15,17.72-26.83,39.74q-2.32,4.13-4.13,8.25C918.31,52.72,927.94,25.2,925.7,23.82Z"/><path class="cls-13" d="M914.69,91.08c4.3-12.56,15.66-32.86,22-41.8,1.55-2.06,2.75-2.58,4.13-1,2.58,2.75,3.95,10.15-.17,18.75C937,74.59,929.81,86.29,926.2,94.89c-4.13,10-3.79,16.68,1.72,16.34,7.74-.35,17.2-11.7,22.36-23.56.86-1.55,2.06-1.38,2.75,0,1.38,2.75.86,6.36-1.2,10.66-5.16,10.66-16,17.89-25.63,17.89C913.15,116.19,909.88,105.18,914.69,91.08Zm38.36-44.9c-2.24,2.41-7,1.9-9.63-2.58-2.75-4.64-1.89-9.8.86-12.72s7.74-.86,10,3.78A10.37,10.37,0,0,1,953.05,46.18Z"/><path class="cls-14" d="M972.48,111.37c14.28.69,26.84-13.07,34.23-24.42.86-1.38,2.24-1.38,2.93.17.68,1.38.17,6.19-2.93,10.66-7.22,10.49-20.47,18.41-33.71,18.58-21.84.34-29.41-21.16-18.23-43.34s28.72-31.14,37.32-26.15a32,32,0,0,1,10.15,9c3.1,4.12,1.72,14.62-5.5,23.39-8.43,10.32-20,14.79-32,5C959.24,100,963.37,110.85,972.48,111.37Zm14.28-39.56c5.5-7.22,9.29-16.17,6.88-18.06-3.61-2.92-17.89,7.4-26,23.74-.52,1-1,2.06-1.38,2.92C974.72,85.74,981.77,78.35,986.76,71.81Z"/></g></g></g></g></svg>