<?xml version="1.0" encoding="utf-8"?>
<!-- Generator: Adobe Illustrator 25.3.1, SVG Export Plug-In . SVG Version: 6.00 Build 0)  -->
<svg version="1.1" id="Layer_1" xmlns="http://www.w3.org/2000/svg" xmlns:xlink="http://www.w3.org/1999/xlink" x="0px" y="0px"
	 viewBox="0 0 1009.9 176.7" style="enable-background:new 0 0 1009.9 176.7;" xml:space="preserve">
<style type="text/css">
	.st0{fill:url(#SVGID_1_);}
	.st1{fill:url(#SVGID_2_);}
	.st2{fill:url(#SVGID_3_);}
	.st3{fill:url(#SVGID_4_);}
	.st4{fill:url(#SVGID_5_);}
	.st5{fill:url(#SVGID_6_);}
	.st6{fill:url(#SVGID_7_);}
	.st7{fill:url(#SVGID_8_);}
	.st8{fill:url(#SVGID_9_);}
	.st9{fill:url(#SVGID_10_);}
	.st10{fill:url(#SVGID_11_);}
	.st11{fill:url(#SVGID_12_);}
	.st12{fill:url(#SVGID_13_);}
	.st13{fill:url(#SVGID_14_);}
</style>
<g id="Layer_2_1_">
	<g id="Layer_2-2">
		
			<linearGradient id="SVGID_1_" gradientUnits="userSpaceOnUse" x1="8.444786e-04" y1="117.0871" x2="54.2036" y2="117.0871" gradientTransform="matrix(1 0 0 -1 0 178)">
			<stop  offset="1.000000e-02" style="stop-color:#401617"/>
			<stop  offset="8.000000e-02" style="stop-color:#6B4C2D"/>
			<stop  offset="0.38" style="stop-color:#A58A55"/>
			<stop  offset="0.45" style="stop-color:#9D8156"/>
			<stop  offset="0.57" style="stop-color:#987A57"/>
			<stop  offset="0.89" style="stop-color:#967857"/>
			<stop  offset="1" style="stop-color:#814F2F"/>
		</linearGradient>
		<path class="st0" d="M52.8,7.8c2.4,5,2.2,13.2-5.2,26.3C37,52.9,18.1,86.1,5.5,114.3c-0.7,1.7-1.4,1.9-2.8,0.3
			c-2.4-2.6-4.5-8.6-0.7-19.1c8.4-23.4,32.7-67.8,46.6-87.9C50.2,5.4,51.8,5.8,52.8,7.8z"/>
		
			<linearGradient id="SVGID_2_" gradientUnits="userSpaceOnUse" x1="26.3217" y1="96.9736" x2="103.7027" y2="96.9736" gradientTransform="matrix(1 0 0 -1 0 178)">
			<stop  offset="1.000000e-02" style="stop-color:#401617"/>
			<stop  offset="8.000000e-02" style="stop-color:#6B4C2D"/>
			<stop  offset="0.38" style="stop-color:#A58A55"/>
			<stop  offset="0.45" style="stop-color:#9D8156"/>
			<stop  offset="0.57" style="stop-color:#987A57"/>
			<stop  offset="0.89" style="stop-color:#967857"/>
			<stop  offset="1" style="stop-color:#814F2F"/>
		</linearGradient>
		<path class="st1" d="M84.6,46.2c5.7,0.9,11,9.3,6.7,18.2c-3.6,7.6-12,20.3-16,29.2c-4.5,10-3.4,18,2.8,17.7
			c7-0.3,15.5-11.7,22-23.7c0.9-1.6,2.1-1.6,2.9-0.2c1.2,1.9,0.9,5.8-1.6,10.8c-4.6,9.6-15.5,18.4-25.5,18.4
			c-14.6,0-18-10.7-13-25.6C68.7,74.2,83.8,56,80.7,54.6C79,53.9,69,58.7,58,70.8c-10.2,11-17.7,27.5-25.1,43.7
			c-0.7,1.6-1.7,2.2-3.3,0.7c-3.4-3.4-4.5-9.1-1.7-17.7c3.4-10.8,16.7-34.7,27.5-50.7c1.2-1.9,2.6-1.7,3.6,0
			c2.6,4.3,2.4,10.1,0.5,16.3C67.3,54.8,79,45.3,84.6,46.2z"/>
		
			<linearGradient id="SVGID_3_" gradientUnits="userSpaceOnUse" x1="85.2097" y1="72.4178" x2="226.5273" y2="72.4178" gradientTransform="matrix(1 0 0 -1 0 178)">
			<stop  offset="1.000000e-02" style="stop-color:#401617"/>
			<stop  offset="8.000000e-02" style="stop-color:#6B4C2D"/>
			<stop  offset="0.38" style="stop-color:#A58A55"/>
			<stop  offset="0.45" style="stop-color:#9D8156"/>
			<stop  offset="0.57" style="stop-color:#987A57"/>
			<stop  offset="0.89" style="stop-color:#967857"/>
			<stop  offset="1" style="stop-color:#814F2F"/>
		</linearGradient>
		<path class="st2" d="M110.8,115.7c-15.7,0-18.9-21.8-4.7-42.5c13.8-19.8,27.2-27.7,35.8-27.7c7.1,0,10.5,5.3,10.3,11.3
			c2.1-3.4,3.9-6.7,5.9-9.5c1.4-2.1,2.9-2.6,4.3-0.9c2.4,2.9,3.6,10.2-0.7,18.9c-5,10-15.1,30.1-22.5,46.6
			c17.7-9.1,32.2-24.8,41.3-48.8c-12.6-5.5,4.1-28.4,11-28.7c5.9-0.3,4,10.2-0.3,21.7c5.9-1,12-3.6,18.6-8.1c2.4-1.5,3.4-2.1,5-0.3
			c3.3,3.8,7.7,11.5,2.6,17.4c-8.3,9.3-16.9,20.8-19.8,29.9c-3.1,9.5-0.9,16.3,4.3,16.5c7.1,0.3,15.8-10.8,21.5-23.7
			c0.7-1.4,1.9-1.7,2.6,0c0.9,2.1,1.2,6.4-0.9,11.2c-4.3,10.3-14.6,17.9-24.1,17.5c-13.1-0.5-18.2-12.3-13.9-26.1
			c3.6-11.5,14.1-24.2,21.5-32.7c-7.6,4.8-15.1,6.7-20.8,6.7c-10.5,24.1-23.2,43.3-51.6,55c-9.8,23-22,50.9-36.3,56.6
			c-3.1,1.2-6.7,1.2-9.8-3.6c-3.4-5.2-6.7-11.2-3.4-21.3c5-15.3,19.4-25.6,37-32.7c1.6-4,3.1-7.7,4.8-11.7
			C123.3,111.7,117.3,115.7,110.8,115.7z M93.4,166.6c2.2,3.3,16-15,27.2-40.9C97.9,139.1,90.3,162.3,93.4,166.6z M144.8,54.3
			c-5.5-0.3-17.9,10.7-27.3,25.8c-9.3,14.8-11.2,29.9-4.5,29.9c6.5,0,15.3-10.7,24.2-25.8C148.3,65.4,149.7,54.6,144.8,54.3z"/>
		
			<linearGradient id="SVGID_4_" gradientUnits="userSpaceOnUse" x1="219.4435" y1="105.126" x2="262.3405" y2="105.126" gradientTransform="matrix(1 0 0 -1 0 178)">
			<stop  offset="1.000000e-02" style="stop-color:#401617"/>
			<stop  offset="8.000000e-02" style="stop-color:#6B4C2D"/>
			<stop  offset="0.38" style="stop-color:#A58A55"/>
			<stop  offset="0.45" style="stop-color:#9D8156"/>
			<stop  offset="0.57" style="stop-color:#987A57"/>
			<stop  offset="0.89" style="stop-color:#967857"/>
			<stop  offset="1" style="stop-color:#814F2F"/>
		</linearGradient>
		<path class="st3" d="M221.6,91.1c4.3-12.6,15.6-32.9,22-41.8c1.6-2.1,2.8-2.6,4.1-1c2.6,2.8,4,10.1-0.2,18.7
			c-3.6,7.6-10.8,19.3-14.4,27.9c-4.1,10-3.8,16.7,1.7,16.3c7.7-0.3,17.2-11.7,22.4-23.6c0.9-1.6,2.1-1.4,2.8,0
			c1.4,2.8,0.9,6.4-1.2,10.7c-5.2,10.7-16,17.9-25.6,17.9C220,116.2,216.7,105.2,221.6,91.1z M259.9,46.2c-2.2,2.4-7.1,1.9-9.6-2.6
			c-2.8-4.6-1.9-9.8,0.9-12.7s7.7-0.9,10,3.8C263.1,38.4,262.6,42.9,259.9,46.2z"/>
		
			<linearGradient id="SVGID_5_" gradientUnits="userSpaceOnUse" x1="254.1736" y1="116.7666" x2="343.424" y2="116.7666" gradientTransform="matrix(1 0 0 -1 0 178)">
			<stop  offset="1.000000e-02" style="stop-color:#401617"/>
			<stop  offset="8.000000e-02" style="stop-color:#6B4C2D"/>
			<stop  offset="0.38" style="stop-color:#A58A55"/>
			<stop  offset="0.45" style="stop-color:#9D8156"/>
			<stop  offset="0.57" style="stop-color:#987A57"/>
			<stop  offset="0.89" style="stop-color:#967857"/>
			<stop  offset="1" style="stop-color:#814F2F"/>
		</linearGradient>
		<path class="st4" d="M304.5,111.7c7.1-0.3,16.3-11.9,22.4-23.7c0.9-1.6,2.1-1.6,2.8-0.2c0.7,1.6,0.9,6-1.4,10.7
			c-4.6,9.5-15.3,18.6-24.8,18.1c-9.3-0.5-13.9-5.7-13.9-13.8c-5.5,6.9-13.2,13.2-21.3,13.2c-16,0-19.1-21.8-5-42.5
			c13.6-20,27.3-27.7,35.9-27.7c7,0,10.5,5.3,10.3,11.7c9.3-17.7,22.4-41.1,28.6-49.9c1.7-2.4,3.3-2.2,4.1,0
			c2.4,5.7,1.9,13.1-5.3,26C328.5,48.4,312,76.8,303.4,95C298.8,105,298.6,112.1,304.5,111.7z M274.5,80.4
			c-9.3,14.8-11.2,29.8-4.5,29.9c6.9,0.2,16.2-10,24.3-25.6c10-19.1,12.5-29.9,7.6-30.1C296.5,54.4,284,65.3,274.5,80.4z"/>
		
			<linearGradient id="SVGID_6_" gradientUnits="userSpaceOnUse" x1="362.6326" y1="97.033" x2="439.0647" y2="97.033" gradientTransform="matrix(1 0 0 -1 0 178)">
			<stop  offset="1.000000e-02" style="stop-color:#401617"/>
			<stop  offset="8.000000e-02" style="stop-color:#6B4C2D"/>
			<stop  offset="0.38" style="stop-color:#A58A55"/>
			<stop  offset="0.45" style="stop-color:#9D8156"/>
			<stop  offset="0.57" style="stop-color:#987A57"/>
			<stop  offset="0.89" style="stop-color:#967857"/>
			<stop  offset="1" style="stop-color:#814F2F"/>
		</linearGradient>
		<path class="st5" d="M424.5,47.2c1.5-2.2,2.9-2.6,4.1-1c2.6,3.1,4,10.5-0.2,19.1C424.7,73,416.1,85.9,412,95
			c-4.3,9.6-4.5,17,1.4,16.7c7-0.3,16.5-12,22.5-23.9c0.9-1.6,2.1-1.7,2.8-0.2s0.7,5.8-1.5,10.7c-4.5,9.5-15.3,18.9-24.8,18.4
			c-9.3-0.5-14.1-6-14.1-14.1c-5.6,7.1-13.2,13.4-21.6,13.4c-16,0-19.3-21.8-5-42.7c13.9-20.3,27.5-28,36.1-28
			c7.4,0,10.8,5.7,10.5,12.4C420.2,54.1,422.3,50.6,424.5,47.2z M410.8,54.3c-5.5-0.5-18.1,10.7-27.5,26
			c-9.1,14.8-11.4,29.9-4.6,30.1c7,0.2,16-10.8,24.8-26C414.2,65.4,415.7,54.8,410.8,54.3z"/>
		
			<linearGradient id="SVGID_7_" gradientUnits="userSpaceOnUse" x1="426.866" y1="96.9772" x2="504.2776" y2="96.9772" gradientTransform="matrix(1 0 0 -1 0 178)">
			<stop  offset="1.000000e-02" style="stop-color:#401617"/>
			<stop  offset="8.000000e-02" style="stop-color:#6B4C2D"/>
			<stop  offset="0.38" style="stop-color:#A58A55"/>
			<stop  offset="0.45" style="stop-color:#9D8156"/>
			<stop  offset="0.57" style="stop-color:#987A57"/>
			<stop  offset="0.89" style="stop-color:#967857"/>
			<stop  offset="1" style="stop-color:#814F2F"/>
		</linearGradient>
		<path class="st6" d="M485.2,46.2c5.7,0.9,11,9.3,6.7,18.2c-3.6,7.6-12,20.3-16,29.2c-4.5,10-3.4,18,2.8,17.7
			c7.1-0.3,15.5-11.7,22-23.7c0.9-1.6,2.1-1.6,2.9-0.2c1.2,1.9,0.9,5.8-1.5,10.8c-4.6,9.6-15.5,18.4-25.5,18.4
			c-14.6,0-18.1-10.7-13.1-25.6c5.7-16.9,20.8-35.1,17.7-36.5c-1.7-0.7-11.7,4.1-22.7,16.2c-10.1,11-17.7,27.5-25.1,43.7
			c-0.7,1.6-1.7,2.2-3.3,0.7c-3.4-3.4-4.5-9.1-1.7-17.7c3.5-10.8,16.7-34.7,27.6-50.7c1.2-1.9,2.6-1.7,3.6,0
			c2.6,4.3,2.4,10.1,0.5,16.3C467.9,54.8,479.5,45.3,485.2,46.2z"/>
		
			<linearGradient id="SVGID_8_" gradientUnits="userSpaceOnUse" x1="497.0136" y1="116.7766" x2="586.2939" y2="116.7766" gradientTransform="matrix(1 0 0 -1 0 178)">
			<stop  offset="1.000000e-02" style="stop-color:#401617"/>
			<stop  offset="8.000000e-02" style="stop-color:#6B4C2D"/>
			<stop  offset="0.38" style="stop-color:#A58A55"/>
			<stop  offset="0.45" style="stop-color:#9D8156"/>
			<stop  offset="0.57" style="stop-color:#987A57"/>
			<stop  offset="0.89" style="stop-color:#967857"/>
			<stop  offset="1" style="stop-color:#814F2F"/>
		</linearGradient>
		<path class="st7" d="M547.3,111.7c7-0.3,16.3-11.9,22.4-23.7c0.9-1.6,2.1-1.6,2.8-0.2c0.7,1.6,0.9,6-1.4,10.7
			c-4.7,9.5-15.3,18.6-24.8,18.1c-9.3-0.5-13.9-5.7-13.9-13.8c-5.5,6.9-13.2,13.2-21.3,13.2c-16,0-19.1-21.8-5-42.5
			c13.6-20,27.3-27.7,36-27.7c7,0,10.5,5.3,10.3,11.7c9.3-17.7,22.4-41.1,28.5-49.9c1.7-2.4,3.3-2.2,4.1,0c2.4,5.7,1.9,13.1-5.3,26
			c-8.3,14.8-24.8,43.2-33.4,61.4C541.6,105,541.5,112.1,547.3,111.7z M517.4,80.4c-9.3,14.8-11.2,29.8-4.5,29.9
			c6.9,0.2,16.2-10,24.2-25.6c10-19.1,12.6-29.9,7.6-30.1C539.4,54.4,526.8,65.3,517.4,80.4z"/>
		
			<linearGradient id="SVGID_9_" gradientUnits="userSpaceOnUse" x1="611.0585" y1="117.9681" x2="693.4536" y2="117.9681" gradientTransform="matrix(1 0 0 -1 0 178)">
			<stop  offset="1.000000e-02" style="stop-color:#401617"/>
			<stop  offset="8.000000e-02" style="stop-color:#6B4C2D"/>
			<stop  offset="0.38" style="stop-color:#A58A55"/>
			<stop  offset="0.45" style="stop-color:#9D8156"/>
			<stop  offset="0.57" style="stop-color:#987A57"/>
			<stop  offset="0.89" style="stop-color:#967857"/>
			<stop  offset="1" style="stop-color:#814F2F"/>
		</linearGradient>
		<path class="st8" d="M675.8,78.5c4.3,11.5-6.7,24.4-13.9,29.6c-12.2,8.8-26.7,8.6-36,3.6c-7.7-4.1-14.5-14.8-14.8-28.9
			c-0.7-36.5,29.9-67.6,49.2-75c9.3-3.6,17.7-4.3,23.2,0.5c3.8,3.3,7.7,8.3,9.1,12.6c1.5,5,1,9.8-1.5,15.1s-5,12-6.9,17
			c-0.5,1.4-1.7,2.4-3.8,1c-4-2.6-6.7-7.9-4.1-16.5c2.8-9.1,9-18.9,5-23c-4.8-5.2-31,8.8-46.4,34.4c-15.1,25.1-13.4,50.6-5,57.4
			c11,9,29.2-2.6,42.3-28.2C673,76.3,674.9,76.3,675.8,78.5z"/>
		
			<linearGradient id="SVGID_10_" gradientUnits="userSpaceOnUse" x1="679.5255" y1="119.8208" x2="755.7244" y2="119.8208" gradientTransform="matrix(1 0 0 -1 0 178)">
			<stop  offset="1.000000e-02" style="stop-color:#401617"/>
			<stop  offset="8.000000e-02" style="stop-color:#6B4C2D"/>
			<stop  offset="0.38" style="stop-color:#A58A55"/>
			<stop  offset="0.45" style="stop-color:#9D8156"/>
			<stop  offset="0.57" style="stop-color:#987A57"/>
			<stop  offset="0.89" style="stop-color:#967857"/>
			<stop  offset="1" style="stop-color:#814F2F"/>
		</linearGradient>
		<path class="st9" d="M728.1,116.4c-14.5,0-18.1-10.5-12.9-25.5c5.7-16.7,20.6-34.6,17.9-36.1c-2.4-1.4-21.2,10.3-31.1,26.7
			c-6.4,10.4-12,21.4-16.7,32.7c-0.7,1.6-1.9,1.9-2.9,0.7c-2.8-3.1-4.3-7.9-0.7-18.2c6-17.2,41.8-77.7,55.7-95.1
			c1.5-2.1,3.3-1.9,4.1,0.2c2.2,5,1.7,13.6-4.8,24.4c-4.1,6.9-13.2,20.8-20.7,32.3c7-6.9,16-12.6,20.6-12c5.8,0.7,11.2,9.3,6.7,18.1
			c-3.8,7.6-12,20.1-16,29.1c-4.3,10-3.4,18.1,2.9,17.7c7-0.3,16.5-12.7,21.8-23.7c0.3-0.9,1.2-1.4,2-1.1c0.5,0.1,0.9,0.5,1.1,0.9
			c0.9,1.9,0.9,5.5-1.7,10.7C748.7,107.8,738.2,116.4,728.1,116.4z"/>
		
			<linearGradient id="SVGID_11_" gradientUnits="userSpaceOnUse" x1="749.9998" y1="102.6189" x2="880.9872" y2="102.6189" gradientTransform="matrix(1 0 0 -1 0 178)">
			<stop  offset="1.000000e-02" style="stop-color:#401617"/>
			<stop  offset="8.000000e-02" style="stop-color:#6B4C2D"/>
			<stop  offset="0.38" style="stop-color:#A58A55"/>
			<stop  offset="0.45" style="stop-color:#9D8156"/>
			<stop  offset="0.57" style="stop-color:#987A57"/>
			<stop  offset="0.89" style="stop-color:#967857"/>
			<stop  offset="1" style="stop-color:#814F2F"/>
		</linearGradient>
		<path class="st10" d="M764,115.5c-15.8,0-19.3-21.8-5-42.5c13.8-19.8,27.3-27.7,36.1-27.7c6.7,0,10.1,5.3,10.1,11.4
			c2.6-4.3,4.8-7.7,6-9.5c1.4-2.1,2.8-2.6,4.1-1c2.8,3.1,4,10.3,0.2,18.9c-3.4,7.7-12.5,21.2-16.3,29.9c-4.1,9.8-3.4,16.2,1.9,15.7
			c11-1,26.5-22.2,34.6-47.5c-13.9-5,2.4-28.4,9.3-28.9c5.3-0.3,3.6,9.8,0,21.7c6.2-0.7,12.5-3.6,19.1-8.1c2.4-1.7,3.6-2.1,5.2-0.3
			c3.3,3.6,7.4,11.5,2.4,17.4c-8.1,9.3-16.9,21.3-19.6,29.9c-2.9,9.5-1,16.2,4.3,16.5c7.2,0.5,15.8-10.8,21.3-23.7
			c0.7-1.4,1.9-1.7,2.6,0c1.2,3.7,0.9,7.7-0.7,11.2c-4.5,10.3-14.6,17.9-24.1,17.6c-13.1-0.5-18.2-12.4-14.1-26.1
			c3.4-11.4,13.9-24.1,21.3-32.3c-7.6,4.5-15,6.4-20.3,6.4c-8.4,24.3-23.9,50.2-42.3,51.6c-9.5,0.7-14.6-5.3-14.4-14.1
			C780.2,108.8,772.5,115.5,764,115.5z M770.4,79.9c-9.3,14.8-11.2,29.8-4.5,29.9c6.9,0.2,15.8-10.3,24.6-25.8
			c10.7-18.7,12.2-29.6,7.2-29.9C792.4,53.8,779.8,64.8,770.4,79.9L770.4,79.9z"/>
		
			<linearGradient id="SVGID_12_" gradientUnits="userSpaceOnUse" x1="875.4988" y1="116.5828" x2="932.5458" y2="116.5828" gradientTransform="matrix(1 0 0 -1 0 178)">
			<stop  offset="1.000000e-02" style="stop-color:#401617"/>
			<stop  offset="8.000000e-02" style="stop-color:#6B4C2D"/>
			<stop  offset="0.38" style="stop-color:#A58A55"/>
			<stop  offset="0.45" style="stop-color:#9D8156"/>
			<stop  offset="0.57" style="stop-color:#987A57"/>
			<stop  offset="0.89" style="stop-color:#967857"/>
			<stop  offset="1" style="stop-color:#814F2F"/>
		</linearGradient>
		<path class="st11" d="M890.6,111c8.3,0.7,20.3-11.7,27-24.9c1.2-2.2,3.1-2.4,3.8,0c0.9,2.8,0.2,6.5-1.7,10.7
			c-2.4,5.2-15,19.4-28.7,19.1c-11.9-0.3-18.2-8.6-14.3-27.2c6.4-29.9,26-61.1,43.5-79.3c2.6-2.8,5-3.1,7.4-0.9c5,4.5,6,10.8,4,18.9
			c-5.3,21.1-24.6,41.8-39.9,51.8C884.8,96.1,882.9,110.3,890.6,111z M925.7,23.8c-2.2-1.4-15,17.7-26.8,39.7
			c-1.5,2.8-2.9,5.5-4.1,8.2C918.3,52.7,927.9,25.2,925.7,23.8z"/>
		
			<linearGradient id="SVGID_13_" gradientUnits="userSpaceOnUse" x1="912.5853" y1="105.126" x2="955.4353" y2="105.126" gradientTransform="matrix(1 0 0 -1 0 178)">
			<stop  offset="1.000000e-02" style="stop-color:#401617"/>
			<stop  offset="8.000000e-02" style="stop-color:#6B4C2D"/>
			<stop  offset="0.38" style="stop-color:#A58A55"/>
			<stop  offset="0.45" style="stop-color:#9D8156"/>
			<stop  offset="0.57" style="stop-color:#987A57"/>
			<stop  offset="0.89" style="stop-color:#967857"/>
			<stop  offset="1" style="stop-color:#814F2F"/>
		</linearGradient>
		<path class="st12" d="M914.7,91.1c4.3-12.6,15.7-32.9,22-41.8c1.5-2.1,2.8-2.6,4.1-1c2.6,2.8,4,10.1-0.2,18.7
			c-3.6,7.6-10.8,19.3-14.5,27.9c-4.1,10-3.8,16.7,1.7,16.3c7.7-0.3,17.2-11.7,22.4-23.6c0.9-1.6,2.1-1.4,2.8,0
			c1.4,2.8,0.9,6.4-1.2,10.7c-5.2,10.7-16,17.9-25.6,17.9C913.2,116.2,909.9,105.2,914.7,91.1z M953,46.2c-2.2,2.4-7,1.9-9.6-2.6
			c-2.8-4.6-1.9-9.8,0.9-12.7s7.7-0.9,10,3.8C956.3,38.4,955.8,42.9,953,46.2z"/>
		
			<linearGradient id="SVGID_14_" gradientUnits="userSpaceOnUse" x1="949.6447" y1="97.0545" x2="1009.905" y2="97.0545" gradientTransform="matrix(1 0 0 -1 0 178)">
			<stop  offset="1.000000e-02" style="stop-color:#401617"/>
			<stop  offset="8.000000e-02" style="stop-color:#6B4C2D"/>
			<stop  offset="0.38" style="stop-color:#A58A55"/>
			<stop  offset="0.45" style="stop-color:#9D8156"/>
			<stop  offset="0.57" style="stop-color:#987A57"/>
			<stop  offset="0.89" style="stop-color:#967857"/>
			<stop  offset="1" style="stop-color:#814F2F"/>
		</linearGradient>
		<path class="st13" d="M972.5,111.4c14.3,0.7,26.8-13.1,34.2-24.4c0.9-1.4,2.2-1.4,2.9,0.2c0.7,1.4,0.2,6.2-2.9,10.7
			c-7.2,10.5-20.5,18.4-33.7,18.6c-21.8,0.3-29.4-21.2-18.2-43.3s28.7-31.1,37.3-26.2c4,2.2,7.5,5.3,10.2,9
			c3.1,4.1,1.7,14.6-5.5,23.4c-8.4,10.3-20,14.8-32,5C959.2,100,963.4,110.8,972.5,111.4z M986.8,71.8c5.5-7.2,9.3-16.2,6.9-18.1
			c-3.6-2.9-17.9,7.4-26,23.7c-0.5,1-1,2.1-1.4,2.9C974.7,85.7,981.8,78.3,986.8,71.8z"/>
	</g>
</g>
</svg>
