<?xml version="1.0" standalone="no"?>
<!DOCTYPE svg PUBLIC "-//W3C//DTD SVG 20010904//EN"
 "http://www.w3.org/TR/2001/REC-SVG-20010904/DTD/svg10.dtd">
<svg version="1.0" xmlns="http://www.w3.org/2000/svg"
 width="1744.000000pt" height="1744.000000pt" viewBox="0 0 1744.000000 1744.000000"
 preserveAspectRatio="xMidYMid meet">
<metadata>
Created by potrace 1.14, written by Peter Selinger 2001-2017
</metadata>
<g transform="translate(0.000000,1744.000000) scale(0.100000,-0.100000)"
fill="#000000" stroke="none">
<path d="M11708 12595 c-2 -1 -25 -5 -53 -9 -27 -3 -62 -8 -76 -11 -26 -5
-205 -42 -244 -51 -34 -7 -74 -16 -185 -39 -33 -6 -96 -20 -142 -30 -12 -2
-38 -7 -58 -10 -20 -3 -47 -8 -60 -11 -14 -2 -43 -7 -65 -10 -22 -3 -47 -7
-56 -10 -9 -2 -34 -7 -55 -9 -37 -5 -87 -12 -144 -20 -34 -6 -117 -15 -165
-20 -22 -1 -74 -6 -115 -10 -213 -20 -384 -26 -786 -29 -198 -1 -366 -6 -374
-11 -9 -6 -11 -4 -5 5 5 8 4 11 -2 7 -9 -6 -41 -7 -183 -7 -8 0 -67 -2 -130
-4 -63 -2 -209 -7 -325 -10 -115 -4 -235 -9 -265 -11 -56 -4 -204 -13 -318
-20 -35 -3 -87 -7 -115 -9 -71 -7 -202 -18 -257 -21 -25 -2 -45 -4 -45 -5 0
-1 -20 -3 -45 -5 -25 -2 -68 -6 -95 -9 -28 -3 -77 -8 -110 -11 -33 -3 -73 -8
-90 -10 -32 -5 -113 -14 -185 -20 -25 -2 -45 -5 -45 -5 0 -1 -11 -3 -25 -5
-14 -1 -43 -5 -65 -8 -22 -4 -62 -9 -90 -12 -27 -3 -61 -8 -75 -10 -14 -2 -43
-7 -65 -10 -45 -6 -75 -10 -200 -30 -22 -3 -67 -10 -100 -16 -70 -11 -110 -17
-145 -24 -14 -3 -38 -8 -55 -11 -16 -3 -41 -7 -55 -10 -14 -2 -41 -7 -60 -10
-19 -3 -102 -19 -185 -35 -82 -17 -162 -32 -177 -34 -15 -2 -31 -6 -35 -8 -5
-3 -27 -8 -49 -11 -23 -4 -55 -11 -73 -16 -17 -5 -34 -9 -36 -9 -3 0 -15 -3
-28 -6 -12 -3 -33 -7 -47 -9 -14 -3 -52 -12 -86 -20 -34 -8 -72 -17 -85 -20
-13 -3 -42 -10 -64 -16 -22 -6 -47 -13 -55 -14 -8 -2 -42 -11 -75 -21 -33 -10
-64 -20 -70 -21 -5 -1 -30 -8 -55 -15 -25 -7 -47 -13 -50 -14 -3 0 -35 -11
-72 -23 -37 -12 -74 -22 -83 -22 -8 0 -15 -4 -15 -8 0 -5 -6 -9 -12 -9 -14 -1
-134 -40 -208 -68 -25 -9 -81 -31 -125 -47 -44 -17 -93 -36 -110 -43 -16 -8
-55 -23 -85 -35 -30 -11 -75 -30 -100 -42 -25 -11 -85 -38 -135 -60 -91 -40
-326 -158 -335 -169 -3 -3 -32 -20 -65 -39 -33 -18 -80 -47 -105 -64 -25 -17
-52 -35 -61 -41 -36 -22 -168 -117 -199 -142 -215 -177 -387 -339 -490 -461
-64 -76 -170 -225 -170 -239 0 -7 -3 -13 -7 -13 -5 0 -13 -10 -19 -23 -6 -12
-27 -52 -47 -90 -20 -37 -37 -71 -37 -75 -1 -4 -10 -27 -21 -51 -20 -46 -76
-212 -83 -246 -2 -11 -12 -51 -21 -90 -18 -78 -20 -89 -31 -225 -12 -151 -7
-378 11 -465 27 -128 79 -301 102 -338 4 -6 8 -17 9 -23 4 -25 91 -172 145
-245 61 -82 155 -181 228 -239 24 -19 49 -41 56 -47 8 -7 18 -13 24 -13 6 0
11 -4 11 -10 0 -5 7 -10 15 -10 8 0 15 -4 15 -10 0 -5 7 -10 15 -10 8 0 15 -3
15 -7 0 -5 10 -13 23 -19 12 -6 63 -31 112 -56 110 -55 262 -106 365 -123 19
-3 47 -8 61 -11 59 -12 228 -19 237 -9 2 2 14 0 27 -5 13 -5 26 -6 29 -3 3 3
34 7 68 9 115 5 188 14 318 40 96 18 104 20 175 40 33 9 65 17 70 19 6 1 17 4
25 7 8 3 65 23 125 43 164 57 374 154 500 233 109 68 182 118 196 134 9 10 19
18 23 18 11 0 75 58 176 160 120 120 170 180 242 290 46 71 127 230 132 262 1
7 8 23 14 36 7 12 10 22 7 22 -3 0 1 16 9 35 9 20 15 38 15 40 -1 5 13 82 16
95 1 3 5 41 10 85 11 112 12 175 2 175 -5 0 -4 6 2 13 6 8 9 16 7 18 -2 2 -6
34 -10 71 -13 143 -61 296 -142 455 -57 114 -72 139 -91 160 -6 7 -13 18 -15
25 -4 10 -14 8 -42 -7 -45 -24 -63 -44 -50 -53 48 -35 180 -353 200 -482 21
-136 25 -315 10 -386 -6 -25 -14 -65 -20 -99 -1 -5 -4 -14 -8 -20 -3 -5 -9
-26 -13 -45 -4 -19 -11 -41 -15 -50 -4 -8 -25 -51 -46 -95 -41 -86 -111 -204
-144 -242 -11 -13 -20 -25 -20 -27 0 -12 -150 -169 -216 -226 -111 -96 -347
-248 -376 -242 -5 1 -8 -2 -8 -8 0 -5 -5 -10 -10 -10 -6 0 -29 -9 -53 -19 -39
-18 -139 -53 -162 -57 -5 -1 -37 -7 -69 -14 -33 -7 -82 -13 -110 -15 -28 -2
-53 -4 -56 -5 -3 -1 -30 -2 -60 -2 -211 1 -362 44 -524 149 -95 62 -266 236
-266 271 0 6 -4 12 -8 14 -22 9 -126 230 -138 292 -2 12 -6 32 -9 46 -24 105
-28 145 -28 280 -1 122 6 241 16 295 3 11 8 38 12 60 4 22 9 51 11 64 3 13 9
32 14 41 5 10 7 20 4 22 -4 5 56 192 75 233 43 91 94 193 104 209 6 11 26 43
43 70 18 28 41 62 53 75 12 13 21 27 21 30 0 3 10 18 23 32 12 15 36 43 52 64
204 250 531 527 790 670 28 15 55 31 60 35 62 49 672 332 765 355 3 1 12 4 20
8 8 3 44 15 80 28 36 12 79 27 95 35 17 7 42 15 55 18 14 3 88 24 165 47 126
37 180 52 225 63 8 2 60 16 115 30 55 15 109 29 120 31 11 3 47 11 80 20 33 8
71 17 85 19 14 2 26 5 28 7 3 2 12 5 57 13 22 5 76 17 120 27 90 20 116 25
160 34 17 3 50 10 75 15 25 5 59 12 75 15 17 3 41 7 55 10 14 3 39 7 55 10 17
2 39 6 50 8 11 3 54 10 95 17 41 6 86 13 100 16 54 9 147 24 185 29 22 4 51 8
65 10 14 3 50 7 80 11 30 3 62 8 72 9 9 2 38 6 65 10 26 4 59 8 72 11 14 2 51
6 84 9 32 4 68 8 80 11 12 2 49 6 82 10 72 7 119 12 160 17 43 6 183 19 230
22 22 2 61 6 87 9 26 3 83 8 125 11 43 3 105 8 138 10 33 3 96 7 140 10 172
10 260 17 264 20 1 2 13 0 26 -5 13 -5 26 -6 29 -2 8 8 15 8 221 17 88 4 203
8 255 11 88 3 596 16 630 15 71 -2 133 0 140 4 4 2 16 -2 26 -10 16 -11 16
-14 4 -18 -8 -2 -37 -11 -65 -20 -27 -9 -70 -22 -95 -28 -25 -7 -47 -13 -50
-14 -3 -1 -32 -10 -65 -20 -33 -11 -62 -19 -65 -20 -7 -1 -171 -55 -190 -62
-8 -3 -19 -7 -25 -8 -15 -4 -317 -114 -340 -124 -11 -5 -85 -35 -165 -66 -164
-65 -175 -69 -283 -119 -44 -20 -81 -36 -84 -36 -15 0 -350 -170 -473 -240
-120 -69 -367 -222 -405 -252 -5 -5 -66 -49 -134 -99 -69 -50 -130 -97 -137
-103 -7 -6 -27 -22 -45 -36 -33 -25 -83 -67 -129 -107 -14 -12 -36 -31 -50
-42 -74 -61 -293 -273 -405 -393 -102 -109 -282 -321 -340 -402 -11 -15 -27
-36 -35 -46 -8 -10 -22 -28 -30 -40 -42 -60 -163 -227 -175 -243 -8 -9 -15
-19 -15 -21 0 -3 -31 -50 -70 -106 -38 -56 -70 -105 -70 -111 0 -5 -4 -9 -10
-9 -5 0 -10 -5 -10 -10 0 -9 -43 -80 -63 -105 -5 -5 -18 -26 -30 -47 -105
-175 -143 -238 -162 -268 -12 -19 -37 -62 -55 -95 -18 -33 -39 -71 -47 -85
-43 -76 -64 -114 -111 -202 -69 -130 -101 -187 -122 -223 -10 -16 -36 -64 -57
-105 -39 -74 -79 -148 -123 -225 -12 -22 -47 -87 -78 -145 -30 -58 -59 -110
-63 -115 -4 -6 -31 -56 -60 -110 -29 -55 -56 -101 -61 -103 -4 -2 -8 -12 -8
-23 0 -10 -4 -19 -9 -19 -5 0 -11 -8 -14 -17 -8 -24 -70 -136 -140 -252 -31
-52 -57 -98 -57 -103 0 -4 -4 -8 -10 -8 -5 0 -10 -6 -10 -14 0 -8 -6 -21 -13
-28 -7 -7 -23 -31 -36 -53 -30 -50 -74 -118 -81 -125 -4 -3 -17 -23 -30 -45
-13 -22 -28 -44 -32 -50 -5 -5 -38 -53 -75 -105 -37 -52 -72 -100 -78 -107
-29 -34 -35 -43 -35 -49 0 -3 -12 -21 -27 -39 -16 -18 -40 -48 -55 -66 -14
-19 -56 -71 -91 -116 -36 -46 -71 -89 -79 -97 -7 -7 -33 -37 -58 -67 -53 -62
-217 -235 -279 -293 -38 -36 -119 -111 -161 -149 -26 -23 -143 -120 -184 -152
-21 -16 -45 -36 -52 -42 -7 -7 -17 -13 -22 -13 -6 0 -12 -4 -14 -8 -4 -11 -90
-74 -209 -154 -105 -70 -130 -85 -209 -125 -30 -15 -57 -30 -60 -33 -6 -7
-186 -90 -194 -90 -2 0 -17 -5 -33 -11 -15 -6 -29 -10 -31 -10 -1 1 -15 -5
-31 -13 -15 -8 -39 -18 -52 -21 -13 -2 -73 -19 -134 -35 -60 -17 -121 -32
-135 -34 -14 -2 -54 -9 -88 -16 -151 -27 -426 -44 -449 -27 -8 6 -13 6 -13 0
0 -5 -12 -8 -27 -7 -16 1 -63 5 -106 9 -43 3 -86 8 -95 9 -9 2 -42 7 -72 12
-30 4 -57 8 -60 9 -3 1 -18 5 -35 9 -64 15 -142 39 -175 53 -342 147 -523 340
-615 659 -25 88 -28 101 -40 185 l-7 46 49 18 c115 44 239 158 295 272 16 34
31 70 33 80 2 10 4 18 5 18 13 0 18 238 7 307 -10 58 -54 183 -81 233 -46 81
-59 99 -106 145 -63 62 -82 76 -132 99 -91 41 -140 49 -274 46 -122 -3 -154
-6 -214 -22 -14 -3 -28 -7 -32 -7 -3 -1 -10 -4 -14 -8 -4 -5 -13 -8 -20 -8
-19 0 -122 -48 -129 -60 -4 -6 -11 -8 -16 -5 -5 4 -9 1 -9 -4 0 -6 -7 -11 -15
-11 -8 0 -15 -4 -15 -9 0 -5 -8 -12 -18 -15 -29 -10 -145 -129 -187 -192 -51
-77 -100 -194 -119 -284 -21 -101 -15 -348 10 -432 3 -10 7 -30 10 -44 22
-120 126 -321 238 -459 81 -99 179 -199 228 -233 13 -9 28 -21 33 -27 14 -16
92 -75 98 -75 3 0 33 -18 67 -41 76 -50 268 -146 380 -189 47 -18 94 -36 105
-41 102 -41 469 -125 630 -143 22 -3 40 -5 40 -6 0 -13 728 -19 860 -7 68 7
134 14 205 22 19 3 58 7 85 10 95 11 111 14 200 30 50 9 99 18 110 19 27 5 88
17 145 30 14 3 57 13 95 22 39 9 76 17 83 17 6 0 12 4 12 9 0 5 3 7 8 5 6 -4
73 12 197 47 6 2 24 6 40 11 17 4 35 11 40 16 6 4 15 8 20 8 12 1 131 39 160
51 137 55 252 102 260 104 20 5 153 68 278 132 150 76 169 87 285 157 48 30
98 60 111 68 14 8 30 17 35 22 6 4 52 35 101 69 110 74 261 185 295 215 14 13
28 23 31 23 3 0 17 10 31 23 14 12 44 38 68 57 24 19 51 42 59 50 9 8 30 25
46 38 119 92 427 399 595 592 36 41 67 77 71 80 3 3 35 43 72 90 37 47 76 94
85 105 10 11 31 38 48 60 16 22 34 45 39 52 22 27 32 41 84 113 30 41 58 77
63 78 4 2 8 10 8 17 0 7 3 15 8 17 8 3 18 18 103 143 29 44 57 82 61 83 5 2 8
10 8 18 0 8 5 14 10 14 6 0 10 5 10 11 0 6 13 29 29 52 49 72 211 338 211 348
0 5 5 9 10 9 6 0 10 4 10 10 0 5 23 48 50 96 28 48 50 89 50 91 0 3 16 32 35
64 19 33 35 67 35 75 0 7 4 14 8 14 5 0 17 20 28 45 10 25 22 45 26 45 4 0 7
3 6 8 -3 7 192 399 257 517 18 33 47 87 65 120 84 156 119 219 183 330 38 66
81 140 94 165 14 25 34 57 44 72 11 14 19 28 19 31 0 8 338 547 349 557 4 3
20 25 36 50 70 105 236 334 309 426 23 28 52 65 66 84 14 18 32 41 42 52 9 10
31 38 50 61 18 22 41 49 51 59 9 10 17 20 17 23 0 3 10 16 23 29 12 13 47 52
77 86 30 35 75 87 100 114 64 73 266 273 328 326 30 25 68 58 85 73 18 16 82
66 142 111 339 254 579 374 860 431 175 36 422 40 575 10 14 -3 48 -7 75 -10
28 -3 66 -8 85 -10 155 -23 520 -23 625 -1 166 35 224 66 261 138 25 48 14
139 -22 192 -29 41 -124 98 -183 109 -14 3 -37 8 -51 12 -24 7 -325 16 -332
10z"/>
<path d="M15509 12595 c-2 -2 -44 -6 -94 -10 -49 -3 -103 -8 -120 -11 -16 -2
-50 -6 -75 -9 -25 -2 -56 -7 -70 -10 -14 -3 -41 -7 -60 -9 -30 -3 -98 -15
-178 -31 -13 -2 -31 -6 -40 -9 -9 -3 -33 -8 -52 -11 -19 -3 -43 -8 -52 -11 -9
-3 -27 -7 -39 -9 -66 -13 -278 -77 -454 -137 -110 -38 -204 -70 -210 -72 -5
-1 -27 -10 -49 -19 -21 -9 -41 -17 -43 -17 -3 0 -19 -6 -36 -14 -18 -7 -95
-39 -172 -71 -165 -69 -285 -124 -450 -207 -147 -74 -378 -199 -385 -208 -3
-3 -12 -9 -21 -13 -9 -3 -65 -35 -123 -71 -59 -36 -108 -66 -111 -66 -13 0
-548 -363 -600 -407 -5 -5 -59 -46 -119 -92 -120 -90 -182 -139 -237 -186 -19
-16 -55 -46 -79 -65 -24 -19 -53 -44 -66 -55 -13 -11 -44 -38 -70 -60 -185
-158 -467 -432 -634 -614 -47 -51 -92 -101 -101 -110 -63 -66 -352 -422 -399
-491 -8 -12 -35 -49 -59 -83 -96 -133 -287 -442 -341 -552 -14 -27 -27 -52
-30 -55 -11 -11 -95 -185 -92 -192 1 -5 -2 -8 -8 -8 -5 0 -10 -5 -10 -11 0 -6
-16 -45 -36 -86 -31 -66 -53 -116 -59 -133 -1 -3 -7 -18 -14 -35 -40 -93 -108
-303 -126 -385 -2 -8 -4 -16 -5 -17 -3 -3 -4 -7 -13 -53 -7 -35 -13 -60 -22
-102 -12 -51 -18 -85 -20 -113 -2 -16 -4 -30 -5 -30 -2 0 -7 -36 -14 -100 -3
-27 -8 -77 -12 -110 -17 -156 -5 -609 21 -745 3 -19 8 -48 9 -65 2 -16 6 -37
9 -45 3 -8 8 -31 10 -50 3 -19 10 -57 17 -85 7 -27 13 -57 14 -65 4 -25 66
-224 76 -242 6 -10 10 -22 10 -27 0 -4 10 -30 22 -57 12 -27 23 -51 23 -54 3
-17 103 -208 118 -224 9 -11 17 -25 17 -32 0 -7 3 -14 8 -16 11 -5 52 -66 52
-78 0 -5 3 -10 8 -10 4 0 14 -11 22 -24 51 -83 258 -291 355 -356 51 -34 80
-55 85 -60 33 -35 302 -160 444 -207 77 -25 148 -48 156 -51 8 -3 23 -6 33 -7
9 -2 18 -3 20 -5 5 -4 65 -17 162 -35 118 -21 135 -24 190 -30 28 -3 68 -8 90
-10 217 -25 710 -25 865 0 14 2 45 7 70 10 25 4 54 8 65 10 117 19 140 23 140
25 0 1 9 3 20 5 101 14 443 112 535 152 8 3 17 7 20 8 18 6 167 69 220 92 94
42 265 128 268 135 2 4 8 8 14 8 6 0 44 20 86 45 41 25 76 45 79 45 5 0 277
181 283 189 3 4 34 27 70 53 36 25 74 54 85 65 11 10 47 40 80 67 77 64 297
284 361 361 27 33 51 62 54 65 3 3 28 34 55 70 28 36 55 68 60 72 7 5 7 8 0 8
-6 0 -6 3 0 8 15 10 135 190 135 202 0 5 6 15 13 22 35 38 157 286 187 383 7
22 15 45 19 50 3 6 6 15 8 20 1 6 13 53 27 105 14 52 28 118 32 145 3 28 8 53
10 56 3 6 15 107 18 164 1 17 5 36 9 43 5 6 5 12 0 12 -4 0 -8 44 -9 98 -1
113 -10 184 -38 297 -14 58 -76 215 -107 270 -33 59 -63 110 -69 115 -4 3 -22
27 -40 55 -40 58 -227 245 -245 245 -7 0 -15 4 -17 8 -8 20 -220 144 -243 142
-3 0 -18 6 -33 14 -33 17 -118 46 -152 52 -14 3 -34 8 -45 11 -143 47 -519 50
-705 7 -43 -10 -64 -15 -86 -19 -12 -3 -40 -11 -63 -20 -23 -8 -45 -15 -49
-16 -4 -1 -18 -6 -32 -11 -14 -6 -29 -11 -35 -12 -5 -1 -26 -9 -46 -18 -20 -9
-45 -19 -57 -22 -12 -4 -22 -12 -22 -17 0 -5 -7 -9 -15 -9 -25 0 -208 -118
-303 -195 -93 -75 -202 -182 -261 -255 -20 -25 -44 -52 -53 -61 -10 -9 -18
-19 -18 -23 0 -3 -16 -27 -35 -53 -19 -27 -39 -52 -43 -58 -4 -5 -24 -39 -45
-75 -21 -36 -42 -72 -47 -80 -16 -26 -140 -279 -140 -285 0 -3 -8 -25 -19 -48
-25 -57 -34 -80 -36 -92 0 -5 -4 -17 -8 -25 -8 -20 -47 -141 -52 -160 -1 -8
-8 -35 -15 -60 -7 -25 -14 -55 -15 -67 -2 -11 -6 -30 -10 -42 -3 -11 -8 -31
-11 -43 -2 -13 -6 -34 -9 -48 -17 -77 -35 -192 -50 -311 -14 -117 -24 -359
-15 -360 45 -5 114 -2 120 6 4 6 8 26 8 45 0 67 13 208 26 275 2 11 7 49 11
85 4 36 9 74 12 85 2 11 6 34 8 50 2 17 11 64 20 105 9 41 19 86 21 100 3 14
9 36 14 50 5 14 12 36 14 50 8 44 72 242 111 340 20 52 42 109 49 125 6 17 15
37 21 45 5 8 24 44 43 80 51 98 132 225 171 267 12 12 21 24 21 27 0 8 74 91
140 155 60 59 144 120 194 142 12 5 28 13 36 18 23 14 124 53 134 53 3 -1 20
4 38 9 83 24 288 32 388 15 133 -22 260 -93 367 -202 58 -60 151 -190 146
-205 -1 -4 4 -13 12 -19 8 -7 15 -20 15 -29 0 -9 4 -21 8 -26 5 -6 18 -35 29
-65 47 -124 65 -207 90 -405 9 -70 9 -388 0 -460 -4 -27 -8 -69 -11 -91 -12
-106 -117 -473 -138 -482 -5 -2 -8 -10 -8 -18 0 -16 -99 -223 -115 -240 -6 -6
-19 -30 -29 -53 -11 -22 -23 -41 -28 -41 -4 0 -8 -7 -8 -15 0 -8 -3 -15 -8
-15 -4 0 -13 -13 -20 -28 -6 -16 -21 -38 -32 -50 -11 -12 -20 -24 -20 -27 0
-6 -79 -112 -105 -141 -5 -6 -32 -37 -60 -69 -250 -291 -639 -566 -965 -683
-134 -48 -130 -47 -280 -77 -163 -33 -389 -37 -505 -10 -112 26 -262 84 -276
107 -3 5 -10 10 -15 10 -5 0 -28 13 -51 29 -23 16 -44 29 -46 29 -17 0 -277
254 -277 271 0 4 -6 14 -13 21 -31 32 -110 163 -160 268 -64 131 -117 281
-143 405 -7 32 -33 177 -39 215 -27 177 -23 522 10 815 5 48 15 127 20 160 3
17 7 48 10 70 7 43 8 51 24 135 6 30 13 66 16 80 3 14 7 36 10 50 3 14 7 35
10 47 13 70 120 447 142 503 4 8 7 17 8 20 11 43 95 272 143 390 15 36 26 68
25 72 -2 5 2 8 7 8 6 0 10 6 10 14 0 7 12 40 27 72 15 33 28 61 29 64 0 3 13
31 27 63 15 32 27 62 27 67 0 6 5 10 10 10 6 0 10 5 10 11 0 16 72 163 82 167
4 2 8 12 8 22 0 10 6 25 13 32 6 7 22 33 34 58 12 25 41 77 63 115 22 39 44
80 50 93 5 12 18 35 29 50 10 15 54 85 97 156 88 142 92 150 148 233 22 32 43
60 48 61 4 2 8 9 8 15 0 7 11 24 25 39 14 15 25 29 25 32 0 5 115 161 135 182
5 7 19 24 30 40 26 37 175 219 220 269 11 13 47 54 80 91 69 78 269 287 334
348 24 22 62 59 85 81 23 22 80 74 126 115 47 41 87 77 90 80 3 3 41 35 85 70
44 35 82 67 85 71 12 15 257 199 265 199 4 0 13 7 22 16 36 35 314 211 443
280 30 16 57 31 60 35 6 6 274 138 330 162 19 8 51 22 70 30 70 31 219 89 233
91 8 1 22 8 31 15 9 7 16 11 16 8 0 -3 33 5 73 19 39 13 72 24 72 23 0 -1 20
4 45 11 46 12 67 17 110 26 14 3 45 10 70 15 25 6 61 12 80 15 19 2 42 6 50 9
23 6 196 25 280 30 93 6 283 6 324 0 34 -5 100 -19 131 -29 6 -2 24 -6 40 -10
17 -5 73 -29 125 -54 117 -57 203 -137 244 -227 15 -33 31 -67 36 -76 9 -17
26 -100 36 -169 8 -56 11 -240 4 -240 -3 0 -6 -30 -7 -67 -1 -36 -7 -89 -12
-117 -6 -28 -13 -67 -16 -86 -15 -89 -88 -332 -108 -357 -5 -7 -7 -13 -4 -13
13 0 -109 -261 -156 -335 -49 -79 -133 -202 -144 -213 -7 -7 -13 -17 -13 -22
0 -16 -253 -266 -320 -316 -141 -106 -284 -187 -390 -219 -30 -9 -62 -19 -70
-23 -8 -3 -22 -6 -30 -7 -8 0 -24 -4 -35 -8 -59 -19 -266 -28 -349 -15 -28 4
-63 10 -77 12 -74 10 -254 92 -302 136 -11 11 -24 20 -29 20 -15 0 -119 115
-164 182 -77 114 -137 279 -144 393 -4 68 -2 227 4 280 6 52 31 155 46 190 33
77 94 195 101 195 5 0 9 5 9 12 0 10 62 98 96 138 8 8 25 28 39 44 l25 29 -32
28 c-41 35 -52 36 -82 2 -14 -16 -36 -41 -51 -58 -67 -76 -155 -223 -193 -321
-25 -64 -34 -89 -32 -89 1 0 -3 -12 -9 -28 -6 -15 -13 -38 -15 -50 -3 -12 -8
-33 -11 -47 -19 -87 -27 -318 -12 -405 15 -96 59 -232 94 -297 40 -72 114
-171 169 -224 36 -34 137 -110 176 -133 46 -25 121 -65 128 -66 3 -1 19 -7 35
-14 35 -15 191 -62 220 -66 11 -2 45 -8 75 -14 85 -16 266 -33 335 -32 190 4
336 22 500 60 123 29 116 27 171 44 213 66 424 170 628 309 127 87 252 198
366 324 52 57 130 161 130 172 0 6 4 12 9 14 12 4 89 136 125 213 15 33 32 69
37 80 6 12 11 27 13 35 1 8 13 47 25 86 12 39 24 84 26 100 2 16 5 29 6 29 7
0 11 88 12 270 1 173 -2 221 -17 275 -32 119 -52 174 -93 255 -35 68 -44 83
-58 95 -8 7 -15 17 -15 21 0 18 -142 166 -210 219 -137 106 -398 219 -591 254
-13 2 -24 5 -24 6 0 2 -24 5 -100 14 -33 4 -67 8 -75 11 -8 2 -46 7 -85 11
-38 3 -90 8 -115 11 -58 5 -537 13 -541 8z"/>
</g>
</svg>
