<svg xmlns="http://www.w3.org/2000/svg"
    xmlns:xlink="http://www.w3.org/1999/xlink" viewBox="0 0 550.49 685.69">
    <defs>
        <style>.palm-1{fill:url(#linear-gradient-palm);}.palm-2{fill:url(#linear-gradient-palm-2);}.palm-3{fill:url(#linear-gradient-palm-3);}.palm-4{fill:url(#linear-gradient-palm-4);}.palm-5{fill:url(#linear-gradient-palm-5);}.palm-6{fill:url(#linear-gradient-palm-6);}.palm-7{fill:url(#linear-gradient-palm-7);}.palm-8{fill:url(#linear-gradient-palm-8);}.palm-9{fill:url(#linear-gradient-palm-9);}.c ls-10{fill:url(#linear-gradient-palm-10);}.palm-11{fill:url(#linear-gradient-palm-11);}.palm-12{fill:url(#linear-gradient-palm-12);}.palm-13{fill:url(#linear-gradient-palm-13);}.palm-14{fill:url(#linear-gradient-palm-14);}.palm-15{fill:url(#linear-gradient-palm-15);}</style>
        <linearGradient id="linear-gradient-palm" x1="237.86" y1="606.98" x2="316.71" y2="637.09" gradientUnits="userSpaceOnUse">
            <stop offset="0" stop-color="#c3a35a"/>
            <stop offset="0.12" stop-color="#f8e6b2"/>
            <stop offset="0.16" stop-color="#f7e5ae"/>
            <stop offset="0.19" stop-color="#f5e0a3"/>
            <stop offset="0.23" stop-color="#f2d991"/>
            <stop offset="0.25" stop-color="#eed17d"/>
            <stop offset="0.45" stop-color="#85662f"/>
            <stop offset="0.66" stop-color="#eed17d"/>
            <stop offset="0.76" stop-color="#f8e6b2"/>
            <stop offset="0.8" stop-color="#f7e5ae"/>
            <stop offset="0.84" stop-color="#f5e0a3"/>
            <stop offset="0.87" stop-color="#f2d991"/>
            <stop offset="0.9" stop-color="#eed17d"/>
            <stop offset="1" stop-color="#85662f"/>
        </linearGradient>
        <linearGradient id="linear-gradient-palm-2" x1="539.63" y1="170.66" x2="133.56" y2="444.48" xlink:href="#linear-gradient-palm"/>
        <linearGradient id="linear-gradient-palm-3" x1="-96.29" y1="119.49" x2="384.3" y2="458.5" gradientUnits="userSpaceOnUse">
            <stop offset="0" stop-color="#f8e6b2"/>
            <stop offset="0.14" stop-color="#f6e3ae"/>
            <stop offset="0.27" stop-color="#efdba3"/>
            <stop offset="0.39" stop-color="#e4cc90"/>
            <stop offset="0.52" stop-color="#d4b976"/>
            <stop offset="0.62" stop-color="#c3a35a"/>
            <stop offset="0.71" stop-color="#aa8b49"/>
            <stop offset="0.81" stop-color="#96763b"/>
            <stop offset="0.91" stop-color="#896a32"/>
            <stop offset="1" stop-color="#85662f"/>
        </linearGradient>
        <linearGradient id="linear-gradient-palm-4" x1="10.88" y1="131.76" x2="439.3" y2="439.11" gradientUnits="userSpaceOnUse">
            <stop offset="0" stop-color="#c3a35a"/>
            <stop offset="0.15" stop-color="#f8e6b2"/>
            <stop offset="0.19" stop-color="#f7e5ae"/>
            <stop offset="0.24" stop-color="#f5e0a3"/>
            <stop offset="0.28" stop-color="#f2d991"/>
            <stop offset="0.31" stop-color="#eed17d"/>
            <stop offset="0.45" stop-color="#85662f"/>
            <stop offset="0.61" stop-color="#eed17d"/>
            <stop offset="0.75" stop-color="#f8e6b2"/>
            <stop offset="0.79" stop-color="#f7e5ae"/>
            <stop offset="0.82" stop-color="#f5e0a3"/>
            <stop offset="0.85" stop-color="#f2d991"/>
            <stop offset="0.88" stop-color="#eed17d"/>
            <stop offset="1" stop-color="#85662f"/>
        </linearGradient>
        <linearGradient id="linear-gradient-palm-5" x1="-68.39" y1="242.25" x2="360.04" y2="549.6" xlink:href="#linear-gradient-palm-4"/>
        <linearGradient id="linear-gradient-palm-6" x1="-17.54" y1="171.37" x2="410.89" y2="478.72" xlink:href="#linear-gradient-palm-4"/>
        <linearGradient id="linear-gradient-palm-7" x1="39.29" y1="92.15" x2="467.72" y2="399.5" xlink:href="#linear-gradient-palm-4"/>
        <linearGradient id="linear-gradient-palm-8" x1="75.48" y1="41.7" x2="503.91" y2="349.05" xlink:href="#linear-gradient-palm-4"/>
        <linearGradient id="linear-gradient-palm-9" x1="92.77" y1="17.61" x2="521.19" y2="324.96" xlink:href="#linear-gradient-palm-4"/>
        <linearGradient id="linear-gradient-palm-10" x1="111.49" y1="-8.49" x2="539.92" y2="298.86" xlink:href="#linear-gradient-palm-4"/>
        <linearGradient id="linear-gradient-palm-11" x1="74.92" y1="42.48" x2="503.35" y2="349.83" xlink:href="#linear-gradient-palm-4"/>
        <linearGradient id="linear-gradient-palm-12" x1="11.66" y1="130.68" x2="440.08" y2="438.02" xlink:href="#linear-gradient-palm-4"/>
        <linearGradient id="linear-gradient-palm-13" x1="-54.35" y1="222.69" x2="374.07" y2="530.04" xlink:href="#linear-gradient-palm-4"/>
        <linearGradient id="linear-gradient-palm-14" x1="-100.21" y1="286.62" x2="328.21" y2="593.96" xlink:href="#linear-gradient-palm-4"/>
        <linearGradient id="linear-gradient-palm-15" x1="-137.92" y1="339.17" x2="290.51" y2="646.52" xlink:href="#linear-gradient-palm-4"/>
    </defs>
    <g id="Layer_2" data-name="Layer 2">
        <g id="Layer_1-2" data-name="Layer 1">
            <path class="palm-1" d="M287.14,564c-3.4,29-9.47,58.55-20.69,85.1-4,9.5-7.73,17-14.49,24.38s5.3,17,11.92,9.67c13.33-14.64,20.07-34.9,25.5-53.54a412.38,412.38,0,0,0,11.4-52.37c.56-3.63,1.1-7.26,1.53-10.91,1.15-9.79-14-12.17-15.17-2.33Z"/>
            <path class="palm-2" d="M546,377.23C526.4,402.6,442.78,502.71,351.54,492c0,0-21.49-6.9-3.07-26.86C365.41,446.76,505,385.59,534.5,321c-21.84-81.28-66.22-158.4-134.22-194.71-22.23-11.87-41.75-22.2-58.94-31.32-7.11,28-27,60.34-43.52,72.38C264,191.88,281.7,152.73,281.7,152.73c20.25-9.38,23.65-49.61,23.51-77.09-66-35.7-83.43-49-88.75-75.64,0,0,.13,1.46.22,4.05C243,92,321.36,379.21,290.52,590.6c0,0,168.86,62.93,231-27.63a128.94,128.94,0,0,0,13.89-27.21c-69.23,60.34-148.95,61.16-176.21,49.85-31.47-13.05-12.28-24.56-12.28-24.56,92.52,28.74,185.68-63.5,201.15-79.73C551.87,449.74,551.21,413.92,546,377.23ZM366.12,155c29.94-31.47,36.84,26.86,0,55.26S366.12,155,366.12,155Zm-56,233.32c-36.85-26.1,104.38-172.69,104.38-172.69C505.81,128.17,346.94,414.45,310.1,388.36Z"/>
            <path class="palm-3" d="M216.68,4.05c.63,17.51-.46,87.16-55.38,112.09,17.55,38.74,54.29,73.53,80.49,100.3,35.3,36.07,0,34.54,0,34.54-47.51,10.09-104.67-67.12-128.1-102.57-25.85,23.94-51.51,57.65-71.91,95.71C111.18,314.76,228.7,351.77,253.3,361.5c33,13,0,26.86,0,26.86-107,13.13-188.49-53.45-231.71-100.55C10.17,317.08,2.47,347.57.41,377.23c-1.67,23.94,1.79,52.72,10.22,82,77.19,47.12,203.14,60.28,239.6,59.63,43-.77,25.33,28.39,25.33,28.39-93.34,43.24-183.77,11.49-231.23-12.62,46.71,73.21,129.73,121.5,246.19,56C321.36,379.21,243,92,216.68,4.05Zm-11,457.22c-3.83,21.49-3.83,34.54-67.54,22.26s-86-45.28-86-45.28C10,371.47,209.55,439.78,205.71,461.27Zm21.49,26.87c-35.3-24.57,29.94-24.57,29.94-24.57C284.77,466.64,262.51,512.7,227.2,488.14Z"/>
            <path class="palm-4" d="M222.22,24.94s5.34,15.39,13,41.17,17.71,62,27.32,103.39c4.79,20.7,9.5,42.7,13.88,65.32s8.25,45.86,11.68,69q1.22,8.69,2.43,17.33c.79,5.76,1.45,11.52,2.17,17.24q.52,4.29,1.05,8.55t.9,8.51c.58,5.66,1.2,11.26,1.74,16.82s.94,11.08,1.4,16.53c.22,2.72.49,5.42.66,8.12s.35,5.36.52,8q.5,8,1,15.69.31,7.73.62,15.17a878.85,878.85,0,0,1-1,91.34c-.39,5.5-.75,10.52-1.07,15.11s-.91,8.74-1.31,12.5-.79,7.12-1.13,10.14c-.09.76-.17,1.49-.25,2.2s-.22,1.39-.32,2.06c-.2,1.33-.4,2.59-.58,3.76-3,18.78-3.61,17.79-4.45,17.67s-1.7.62.14-18.18c.12-1.18.24-2.43.38-3.76.07-.67.14-1.35.21-2.06s.11-1.44.16-2.19c.23-3,.49-6.37.77-10.12s.63-7.87,1-12.43.52-9.56.81-15c1.08-21.85,2-51.28.5-90.78-.2-4.93-.4-10-.61-15.09s-.61-10.33-.92-15.61q-.24-4-.48-8c-.15-2.68-.41-5.37-.61-8.08q-.63-8.13-1.29-16.46T289,356.05q-.41-4.23-.82-8.48l-1-8.53c-.66-5.7-1.25-11.45-2-17.2s-1.48-11.52-2.22-17.3c-3.13-23.1-6.7-46.33-10.68-69s-8.33-44.66-12.75-65.41c-8.84-41.51-18.13-77.86-25.24-103.79S222.22,24.94,222.22,24.94Z"/>
            <path class="palm-5" d="M492.38,575.25s-1.18.92-3.47,2.43-5.67,3.61-10.05,5.94A165.58,165.58,0,0,1,442,597.7a178.46,178.46,0,0,1-50.39,5.16,194.19,194.19,0,0,1-48.51-8.38,219.71,219.71,0,0,1-31.47-12.6c-3.62-1.89-6.6-3.48-9.06-4.83s-4.28-2.62-5.75-3.58c-5.87-3.9-5.18-4.4-4.76-5.13s.55-1.54,6.86,1.33c1.59.7,3.52,1.71,6,2.87s5.51,2.52,9.12,4.23a282,282,0,0,0,30.86,11.84,216.06,216.06,0,0,0,47,9.08,184.13,184.13,0,0,0,49.42-3,170.48,170.48,0,0,0,37.11-12c4.49-2.06,8-3.94,10.35-5.3S492.38,575.25,492.38,575.25Z"/>
            <path class="palm-6" d="M529.22,441.7s-.89,1.64-2.74,4.51-4.65,7-8.46,11.84a193.41,193.41,0,0,1-60.91,51.21l-3.56,1.86c-1.19.61-2.37,1.26-3.61,1.8l-7.38,3.37c-2.51,1-5,2-7.57,3l-1.9.74c-.64.23-1.29.43-1.93.65L427.29,522l-3.86,1.28c-1.3.39-2.61.72-3.91,1.08l-3.9,1-1.95.52-1,.26-1,.2L403.91,528l-1.94.4c-.64.11-1.3.19-1.94.29l-3.87.57-3.83.56-1.9.28-1.9.16-7.48.64c-2.46.27-4.9.27-7.29.34l-7,.16c-4.61-.08-8.91-.3-12.94-.44-4-.29-7.76-.72-11.24-1.05l-2.57-.25c-.84-.08-1.65-.24-2.45-.36l-4.63-.73c-3-.5-5.7-.88-8.2-1.38-5-1.1-9.07-2-12.47-2.85L311,524l-1.16-.35L307.7,523c-1.34-.42-2.52-.79-3.56-1.14-8.32-2.75-7.7-3.38-7.47-4.2s.07-1.64,8.56,0c1.06.21,2.25.45,3.6.74l2.14.46,1.16.26,1.23.21c3.38.59,7.44,1.32,12.34,2.25,9.85,1.38,23.1,3.58,41,3.64l6.84-.14c2.33-.05,4.69,0,7.08-.28l7.27-.54,1.85-.13,1.85-.24,3.72-.49,3.77-.48c.63-.09,1.26-.16,1.89-.26l1.89-.35,7.61-1.42,1-.17.95-.24,1.9-.46,3.82-.93c1.27-.32,2.55-.6,3.82-1l3.79-1.14,3.8-1.15c.63-.19,1.27-.37,1.89-.57l1.87-.68,7.47-2.7,7.3-3.06c1.22-.48,2.39-1.08,3.58-1.64l3.53-1.69a196.93,196.93,0,0,0,62.09-48.09c4-4.66,7-8.61,9-11.38S529.22,441.7,529.22,441.7Z"/>
            <path class="palm-7" d="M496.22,260.57s-3,7.16-9.05,18.41c-3.05,5.63-6.86,12.28-11.45,19.55s-10,15.14-16,23.26S447,338.3,439.65,346.48s-15.18,16.25-23.34,23.88c-4.17,3.72-8.25,7.51-12.52,11L400.63,384l-1.58,1.31-1.61,1.26-6.38,4.95c-1.05.84-2.13,1.6-3.2,2.37l-3.21,2.3-3.16,2.27-1.57,1.11-1.6,1.06c-4.26,2.78-8.33,5.58-12.45,7.95L360,412.11c-1.92,1.13-3.84,2.11-5.66,3.12L349,418.1c-.85.48-1.7.9-2.55,1.3L344,420.61l-4.7,2.29c-1.51.72-2.94,1.46-4.38,2.05l-7.9,3.37c-1.22.51-2.36,1-3.49,1.45l-3.25,1.2-5.63,2c-3.38,1.26-6.16,2-8.34,2.61-8.76,2.39-8.58,1.51-8.84.71s-.86-1.42,7.42-4.82c2.06-.86,4.71-1.81,7.95-3.26l5.43-2.29,3.14-1.3c1.09-.45,2.2-1,3.38-1.53l7.67-3.51c1.4-.6,2.79-1.35,4.26-2.08l4.58-2.3,2.42-1.21c.83-.41,1.66-.83,2.49-1.3l5.18-2.85c1.78-1,3.66-2,5.53-3.08l5.81-3.49c4-2.32,8-5.06,12.24-7.74l1.58-1,1.56-1.08,3.13-2.19,3.17-2.22c1.07-.74,2.15-1.47,3.18-2.28l6.36-4.76,1.61-1.2,1.57-1.26,3.16-2.53c4.28-3.32,8.38-7,12.58-10.51,8.23-7.31,16.23-15,23.73-22.88S451,327.72,457.3,319.92s11.93-15.44,16.8-22.46,8.95-13.49,12.23-18.95C492.91,267.57,496.22,260.57,496.22,260.57Z"/>
            <path class="palm-8" d="M422.54,163.1s-2.78,5.24-7.77,13.69-12.22,20.07-20.95,32.89-19,26.8-29.76,40.07a483,483,0,0,1-32.24,36.14c-10.26,10.28-18.34,17.5-24.53,22.65-3.06,2.61-5.71,4.65-7.9,6.34l-3,2.25c-.9.64-1.72,1.19-2.44,1.68-5.78,3.87-6,3.06-6.51,2.39s-1.23-1.09,3.8-5.78l4.88-4.46c2-1.84,4.51-4,7.44-6.69,5.9-5.31,13.75-12.55,23.89-22.71s21.54-22.32,32.62-35.14S382,220.2,391.32,207.89,408.5,184.4,414,176.27,422.54,163.1,422.54,163.1Z"/>
            <path class="palm-9" d="M349.62,116.28s-.61,4-2.2,10.51a215.13,215.13,0,0,1-8,25.41c-1.9,5-4.13,10.12-6.63,15.32S327.51,178,324.47,183a161,161,0,0,1-9.62,14.4c-1.65,2.29-3.42,4.41-5.1,6.49-.83,1.06-1.74,2-2.59,3s-1.69,1.95-2.55,2.86a128.4,128.4,0,0,1-17.05,15.47c-2.19,1.72-4.15,2.94-5.74,4-.8.52-1.52,1-2.18,1.37s-1.28.68-1.81.95c-4.3,2.17-4.5,1.39-5,.67s-1-1.26,2.54-4.27c.44-.38.95-.79,1.53-1.25l1.91-1.6c1.4-1.19,3.18-2.51,5.18-4.28a173.62,173.62,0,0,0,16.08-15.23c.84-.87,1.63-1.81,2.48-2.73s1.71-1.86,2.53-2.86c1.66-2,3.41-4,5.07-6.15,3.41-4.24,6.73-8.84,9.91-13.59s6.19-9.69,8.95-14.62,5.31-9.86,7.53-14.6a237.36,237.36,0,0,0,9.92-24.47C348.64,120.21,349.62,116.28,349.62,116.28Z"/>
            <path class="palm-10" d="M269.8,61.78S270,64,270,67.6s0,8.68-.38,14.41a172.06,172.06,0,0,1-2.29,18.33c-.31,1.55-.61,3.1-.92,4.63s-.73,3-1.09,4.49c-.19.73-.37,1.46-.55,2.18l-.64,2.1-1.25,4c-.9,2.54-1.78,4.73-2.51,6.65s-1.6,3.46-2.24,4.81c-.34.67-.61,1.3-.92,1.84s-.61,1-.88,1.47c-.53.88-1,1.57-1.34,2.1-1.46,2.14-1.73,1.83-2.09,1.62s-.75-.31.19-2.66c.24-.59.56-1.32,1-2.23l.72-1.49c.26-.55.49-1.18.77-1.85l2-4.75c.67-1.88,1.5-4,2.39-6.5l1.25-3.9q.33-1,.66-2c.2-.7.39-1.41.59-2.12.4-1.43.83-2.88,1.22-4.37s.73-3,1.09-4.51c1.4-6.07,2.53-12.32,3.31-18s1.2-10.66,1.42-14.27S269.8,61.78,269.8,61.78Z"/>
            <path class="palm-11" d="M198.42,126.26s1.49,1.71,4.07,4.42,6.26,6.4,10.61,10.37,9.36,8.23,14.49,12.14c2.57,1.95,5.17,3.81,7.7,5.55s5,3.32,7.35,4.7c4.66,2.81,8.29,4.61,11,5.91l1.86.9c.58.25,1.1.48,1.57.7l2.27,1.05c2.37,1.11,2.15,1.44,2,1.84s-.12.81-2.74.21c-.66-.14-1.47-.4-2.48-.73l-1.68-.58-2-.8a85.56,85.56,0,0,1-11.43-5.87c-2.41-1.42-4.9-3.12-7.46-4.93s-5.11-3.83-7.63-5.93A175.23,175.23,0,0,1,212,142.15c-4.12-4.28-7.52-8.26-9.9-11.16S198.42,126.26,198.42,126.26Z"/>
            <path class="palm-12" d="M85.6,203A148.92,148.92,0,0,0,95.77,216.9,214.53,214.53,0,0,0,125.67,247a189.49,189.49,0,0,0,45.85,28.09,187.78,187.78,0,0,0,25.63,8.53l6.34,1.37,3.11.67,3.11.48,6.07,1c2,.25,4,.39,5.91.6l2.86.28c.93.09,1.85.2,2.76.21l5.28.2,2.51.1c.83,0,1.63.08,2.43,0l4.6-.1,4.28-.08h1l1-.08,1.94-.15,7-.53c1.08-.05,2.11-.19,3.09-.33l2.82-.36,4.9-.58,2.1-.24,1.88-.31c1.18-.19,2.22-.34,3.15-.47,7.44-1,7.31-.22,7.51.61s.74,1.49-6.62,3.64c-.92.26-2,.56-3.15.87l-1.88.5-2.13.41-5,.92-2.88.5c-1,.18-2.05.37-3.16.46l-7.24.76-2,.2-1,.09-1.05,0-4.43.16-4.76.15c-.82,0-1.66,0-2.51,0l-2.6-.09-5.48-.18c-.94,0-1.9-.12-2.87-.21l-3-.29c-2-.21-4.06-.37-6.13-.64l-6.3-1-3.21-.54-3.23-.74c-2.16-.5-4.35-1-6.55-1.53a178.61,178.61,0,0,1-26.27-9.48,184.89,184.89,0,0,1-45.76-30.51A208.09,208.09,0,0,1,95,217.49,141.2,141.2,0,0,1,85.6,203Z"/>
            <path class="palm-13" d="M16.52,338.85s7.07,4.76,19.15,11.92S64.88,367.46,84.85,377a514.69,514.69,0,0,0,65.91,26.44c11.56,3.68,23.17,6.8,34.46,9.19,5.64,1.23,11.2,2.19,16.62,3.06s10.7,1.46,15.78,1.92a187.54,187.54,0,0,0,46.68-1.25A174,174,0,0,0,287.17,411l5.34-1.6a15.48,15.48,0,0,1,2.74-.6c1.17-.1,1.24.31,1.41.7s.45.7-.44,1.49a16.38,16.38,0,0,1-2.38,1.58c-.61.33-1.31.76-2.17,1.15s-1.86.86-3,1.36a113.69,113.69,0,0,1-23.39,6.9c-11.47,2.12-27.27,3.67-48.2,1.8-5.22-.48-10.63-1.16-16.17-2.05s-11.21-2-16.94-3.31a335.9,335.9,0,0,1-34.83-10,481.2,481.2,0,0,1-65.65-28.61C63.75,369.47,47,359.24,35.17,351.58S16.52,338.85,16.52,338.85Z"/>
            <path class="palm-14" d="M16.52,441.7s1.63,1.3,4.75,3.47,7.73,5.2,13.65,8.68a323.47,323.47,0,0,0,49.16,23.36c2.54.93,5.09,1.93,7.71,2.84l8,2.73,8.19,2.56c1.38.44,2.77.84,4.17,1.23l4.21,1.18c1.41.39,2.81.82,4.24,1.18l4.28,1.07c2.87.71,5.73,1.49,8.64,2.09l8.7,1.91,8.76,1.66c11.68,2.06,23.33,3.76,34.61,4.74,11.26,1.14,22.13,1.59,32.18,1.9,20.12.47,35.09-.58,46.23-1.18,5.56-.49,10.17-.87,14-1.15,1.92-.11,3.62-.31,5.16-.46l4.09-.37c9.63-.76,9.32.05,9.45.89s.7,1.54-8.86,3.42l-4.09.76c-1.53.27-3.24.59-5.16.82-3.85.5-8.49,1.08-14.11,1.72a414.79,414.79,0,0,1-46.84,1.69A384.79,384.79,0,0,1,150,500.75l-8.83-1.91-8.76-2.17c-2.92-.69-5.8-1.56-8.67-2.36l-4.3-1.21c-1.43-.41-2.84-.88-4.25-1.32l-4.22-1.33c-1.4-.44-2.8-.88-4.17-1.37l-8.19-2.86-7.95-3c-2.62-1-5.16-2.11-7.68-3.14a313.87,313.87,0,0,1-48.53-25.39c-5.78-3.74-10.27-7-13.29-9.29S16.52,441.7,16.52,441.7Z"/>
            <path class="palm-15" d="M80.23,563a33.18,33.18,0,0,0,3.23,3,77.23,77.23,0,0,0,10,6.92,110.48,110.48,0,0,0,16.37,7.85,149.72,149.72,0,0,0,21.62,6.49,230.31,230.31,0,0,0,51.67,4.89A387.2,387.2,0,0,0,233.3,588l2.77-.37,2.67-.43,5.07-.82,4.75-.75,4.4-.82,7.89-1.44c2.43-.43,4.65-.94,6.71-1.34l10.37-2c2.82-.59,5.07-1,6.86-1.33,7.17-1.23,7-.4,7.27.42s.74,1.47-6.21,3.79c-1.74.58-4,1.26-6.74,2.07s-6.22,1.61-10.34,2.62c-2.07.48-4.3,1.07-6.75,1.57l-8,1.61-4.44.88-4.81.8-5.14.85-2.7.44c-.92.14-1.86.25-2.81.38A318.07,318.07,0,0,1,183,597.3a219.79,219.79,0,0,1-52.38-7.09A147,147,0,0,1,109,582.53a109.81,109.81,0,0,1-16.14-8.83,74.72,74.72,0,0,1-9.6-7.54A32.91,32.91,0,0,1,80.23,563Z"/>
        </g>
    </g>
</svg>