<svg xmlns="http://www.w3.org/2000/svg"
    xmlns:xlink="http://www.w3.org/1999/xlink" viewBox="0 0 534.87 671.39">
    <defs>
        <style>.fanLeaf-1{fill:url(#linear-gradient-fan);}.fanLeaf-2{fill:url(#linear-gradient-fan-2);}.fanLeaf-3{fill:url(#linear-gradient-fan-3);}.fanLeaf-4{fill:url(#linear-gradient-fan-4);}.fanLeaf-5{fill:url(#linear-gradient-fan-5);}.fanLeaf-6{fill:url(#linear-gradient-fan-6);}.fanLeaf-7{fill:url(#linear-gradient-fan-7);}.fanLeaf-8{fill:url(#linear-gradient-fan-8);}.fanLeaf-9{fill:url(#linear-gradient-fan-9);}.fanLeaf-10{fill:url(#linear-gradient-fan-10);}.fanLeaf-11{fill:url(#linear-gradient-fan-11);}.fanLeaf-12{fill:url(#linear-gradient-fan-12);}.fanLeaf-13{fill:url(#linear-gradient-fan-13);}.fanLeaf-14{fill:url(#linear-gradient-fan-14);}.fanLeaf-15{fill:url(#linear-gradient-fan-15);}.fanLeaf-16{fill:url(#linear-gradient-fan-16);}.fanLeaf-17{fill:url(#linear-gradient-fan-17);}.fanLeaf-18{fill:url(#linear-gradient-fan-18);}.fanLeaf-19{fill:url(#linear-gradient-fan-19);}.fanLeaf-20{fill:url(#linear-gradient-fan-20);}.fanLeaf-21{fill:url(#linear-gradient-fan-21);}.fanLeaf-22{fill:url(#linear-gradient-fan-22);}.fanLeaf-23{fill:url(#linear-gradient-fan-23);}.fanLeaf-24{fill:url(#linear-gradient-fan-24);}.fanLeaf-25{fill:url(#linear-gradient-fan-25);}.fanLeaf-26{fill:url(#linear-gradient-fan-26);}.fanLeaf-27{fill:url(#linear-gradient-fan-27);}.fanLeaf-28{fill:url(#linear-gradient-fan-28);}.fanLeaf-29{fill:url(#linear-gradient-fan-29);}.fanLeaf-30{fill:url(#linear-gradient-fan-30);}.fanLeaf-31{fill:url(#linear-gradient-fan-31);}</style>
        <linearGradient id="linear-gradient-fan" x1="128.78" y1="496.83" x2="322.5" y2="531.6" gradientUnits="userSpaceOnUse">
            <stop offset="0" stop-color="#c3a35a"/>
            <stop offset="0.12" stop-color="#f8e6b2"/>
            <stop offset="0.13" stop-color="#f5e2ae"/>
            <stop offset="0.14" stop-color="#ebd7a3"/>
            <stop offset="0.16" stop-color="#dac590"/>
            <stop offset="0.17" stop-color="#c3ab76"/>
            <stop offset="0.18" stop-color="#a68b54"/>
            <stop offset="0.19" stop-color="#85662f"/>
            <stop offset="0.2" stop-color="#896a32"/>
            <stop offset="0.22" stop-color="#947539"/>
            <stop offset="0.24" stop-color="#a78746"/>
            <stop offset="0.26" stop-color="#c1a158"/>
            <stop offset="0.26" stop-color="#c3a35a"/>
            <stop offset="0.28" stop-color="#bf9f57"/>
            <stop offset="0.31" stop-color="#b49450"/>
            <stop offset="0.34" stop-color="#a18243"/>
            <stop offset="0.36" stop-color="#876831"/>
            <stop offset="0.36" stop-color="#85662f"/>
            <stop offset="0.37" stop-color="#896a32"/>
            <stop offset="0.38" stop-color="#94753a"/>
            <stop offset="0.39" stop-color="#a68847"/>
            <stop offset="0.4" stop-color="#c0a25b"/>
            <stop offset="0.41" stop-color="#e1c473"/>
            <stop offset="0.41" stop-color="#eed17d"/>
            <stop offset="0.45" stop-color="#85662f"/>
            <stop offset="0.48" stop-color="#eed17d"/>
            <stop offset="0.55" stop-color="#f8e6b2"/>
            <stop offset="0.55" stop-color="#f6e3ae"/>
            <stop offset="0.56" stop-color="#efdba3"/>
            <stop offset="0.57" stop-color="#e4cc90"/>
            <stop offset="0.58" stop-color="#d4b976"/>
            <stop offset="0.59" stop-color="#c3a35a"/>
            <stop offset="0.6" stop-color="#c5a65e"/>
            <stop offset="0.61" stop-color="#ccae69"/>
            <stop offset="0.62" stop-color="#d7bd7c"/>
            <stop offset="0.62" stop-color="#e7d096"/>
            <stop offset="0.63" stop-color="#f8e6b2"/>
            <stop offset="0.64" stop-color="#f5e2ae"/>
            <stop offset="0.65" stop-color="#ebd7a3"/>
            <stop offset="0.66" stop-color="#dac590"/>
            <stop offset="0.67" stop-color="#c3ab76"/>
            <stop offset="0.68" stop-color="#a68b54"/>
            <stop offset="0.69" stop-color="#85662f"/>
            <stop offset="0.71" stop-color="#896a32"/>
            <stop offset="0.72" stop-color="#94753a"/>
            <stop offset="0.74" stop-color="#a68847"/>
            <stop offset="0.75" stop-color="#c0a25b"/>
            <stop offset="0.77" stop-color="#e1c473"/>
            <stop offset="0.77" stop-color="#eed17d"/>
            <stop offset="0.9" stop-color="#eed17d"/>
            <stop offset="0.9" stop-color="#eed17d"/>
            <stop offset="1" stop-color="#85662f"/>
        </linearGradient>
        <linearGradient id="linear-gradient-fan-2" x1="235.35" y1="264.55" x2="262.76" y2="264.55" xlink:href="#linear-gradient-fan"/>
        <linearGradient id="linear-gradient-fan-3" x1="277.73" y1="238.16" x2="308.05" y2="238.16" gradientTransform="matrix(1, -0.09, 0.09, 1.04, -76.05, 42.48)" xlink:href="#linear-gradient-fan"/>
        <linearGradient id="linear-gradient-fan-4" x1="314.65" y1="187.06" x2="356.66" y2="187.06" gradientTransform="matrix(0.98, -0.17, 0.18, 1, -141.74, 144.07)" xlink:href="#linear-gradient-fan"/>
        <linearGradient id="linear-gradient-fan-5" x1="359.15" y1="152.05" x2="412.9" y2="152.05" gradientTransform="matrix(0.97, -0.26, 0.27, 0.99, -203.8, 222)" xlink:href="#linear-gradient-fan"/>
        <linearGradient id="linear-gradient-fan-6" x1="398.06" y1="100.15" x2="460.33" y2="100.15" gradientTransform="matrix(0.94, -0.34, 0.34, 0.92, -244.15, 345.92)" xlink:href="#linear-gradient-fan"/>
        <linearGradient id="linear-gradient-fan-7" x1="445.57" y1="53.74" x2="514.85" y2="53.74" gradientTransform="matrix(0.91, -0.42, 0.4, 0.86, -275.91, 463.34)" xlink:href="#linear-gradient-fan"/>
        <linearGradient id="linear-gradient-fan-8" x1="495.24" y1="4.93" x2="569.26" y2="4.93" gradientTransform="matrix(0.87, -0.5, 0.45, 0.79, -292.34, 586.15)" xlink:href="#linear-gradient-fan"/>
        <linearGradient id="linear-gradient-fan-9" x1="553.61" y1="-1.55" x2="634.67" y2="-1.55" gradientTransform="matrix(0.82, -0.57, 0.54, 0.77, -325.7, 666.11)" xlink:href="#linear-gradient-fan"/>
        <linearGradient id="linear-gradient-fan-10" x1="601.96" y1="-41.24" x2="684.01" y2="-41.24" gradientTransform="matrix(0.77, -0.64, 0.58, 0.69, -320.75, 789.21)" xlink:href="#linear-gradient-fan"/>
        <linearGradient id="linear-gradient-fan-11" x1="657.61" y1="-31.35" x2="743.44" y2="-31.35" gradientTransform="translate(-341.49 870.86) rotate(-45) scale(1 0.93)" xlink:href="#linear-gradient-fan"/>
        <linearGradient id="linear-gradient-fan-12" x1="710" y1="-87.43" x2="790.4" y2="-87.43" gradientTransform="matrix(0.64, -0.77, 0.66, 0.55, -291.69, 1010.38)" xlink:href="#linear-gradient-fan"/>
        <linearGradient id="linear-gradient-fan-13" x1="771.97" y1="-142.8" x2="846.58" y2="-142.8" gradientTransform="matrix(0.57, -0.82, 0.66, 0.46, -237.64, 1132.28)" xlink:href="#linear-gradient-fan"/>
        <linearGradient id="linear-gradient-fan-14" x1="840.19" y1="-167.35" x2="909.83" y2="-167.35" gradientTransform="matrix(0.5, -0.87, 0.68, 0.39, -193.09, 1234.4)" xlink:href="#linear-gradient-fan"/>
        <linearGradient id="linear-gradient-fan-15" x1="888.71" y1="-182.85" x2="952.02" y2="-182.85" gradientTransform="matrix(0.42, -0.91, 0.68, 0.32, -136.76, 1330.92)" xlink:href="#linear-gradient-fan"/>
        <linearGradient id="linear-gradient-fan-16" x1="946.27" y1="-256.61" x2="1000.31" y2="-256.61" gradientTransform="matrix(0.34, -0.94, 0.64, 0.23, -34.25, 1434.01)" xlink:href="#linear-gradient-fan"/>
        <linearGradient id="linear-gradient-fan-17" x1="285.48" y1="1265.75" x2="337.94" y2="1265.75" gradientTransform="matrix(0.26, 0.97, -0.78, 0.21, 1290.85, -100.47)" xlink:href="#linear-gradient-fan"/>
        <linearGradient id="linear-gradient-fan-18" x1="239.14" y1="1212.75" x2="298.91" y2="1212.75" gradientTransform="matrix(0.34, 0.94, -0.75, 0.27, 1200.84, -136)" xlink:href="#linear-gradient-fan"/>
        <linearGradient id="linear-gradient-fan-19" x1="202.79" y1="1121.01" x2="271.98" y2="1121.01" gradientTransform="matrix(0.42, 0.91, -0.77, 0.36, 1155.57, -186.63)" xlink:href="#linear-gradient-fan"/>
        <linearGradient id="linear-gradient-fan-20" x1="157.67" y1="1031.56" x2="235.18" y2="1031.56" gradientTransform="matrix(0.5, 0.87, -0.78, 0.45, 1096.92, -232.15)" xlink:href="#linear-gradient-fan"/>
        <linearGradient id="linear-gradient-fan-21" x1="124.79" y1="981.54" x2="204.12" y2="981.54" gradientTransform="matrix(0.57, 0.82, -0.71, 0.5, 977.82, -236.68)" xlink:href="#linear-gradient-fan"/>
        <linearGradient id="linear-gradient-fan-22" x1="103.44" y1="896.22" x2="188.88" y2="896.22" gradientTransform="matrix(0.64, 0.77, -0.71, 0.6, 916.78, -277.52)" xlink:href="#linear-gradient-fan"/>
        <linearGradient id="linear-gradient-fan-23" x1="83.77" y1="818.29" x2="172.85" y2="818.29" gradientTransform="translate(842.95 -308.35) rotate(45) scale(1 0.97)" xlink:href="#linear-gradient-fan"/>
        <linearGradient id="linear-gradient-fan-24" x1="73.69" y1="751.71" x2="161.75" y2="751.71" gradientTransform="matrix(0.77, 0.64, -0.63, 0.75, 744.35, -311.37)" xlink:href="#linear-gradient-fan"/>
        <linearGradient id="linear-gradient-fan-25" x1="76.4" y1="685.57" x2="162.42" y2="685.57" gradientTransform="matrix(0.82, 0.57, -0.58, 0.83, 652.46, -315.99)" xlink:href="#linear-gradient-fan"/>
        <linearGradient id="linear-gradient-fan-26" x1="75.69" y1="621.95" x2="154.98" y2="621.95" gradientTransform="matrix(0.87, 0.5, -0.5, 0.86, 542.42, -285.6)" xlink:href="#linear-gradient-fan"/>
        <linearGradient id="linear-gradient-fan-27" x1="84.76" y1="557.82" x2="158.69" y2="557.82" gradientTransform="matrix(0.91, 0.42, -0.43, 0.93, 455.22, -283.58)" xlink:href="#linear-gradient-fan"/>
        <linearGradient id="linear-gradient-fan-28" x1="103.77" y1="497.03" x2="167.91" y2="497.03" gradientTransform="matrix(0.94, 0.34, -0.35, 0.95, 352.16, -237.7)" xlink:href="#linear-gradient-fan"/>
        <linearGradient id="linear-gradient-fan-29" x1="132.72" y1="463.66" x2="192" y2="463.66" gradientTransform="matrix(0.95, 0.3, -0.31, 0.96, 290.05, -217.91)" xlink:href="#linear-gradient-fan"/>
        <linearGradient id="linear-gradient-fan-30" x1="167.52" y1="385.53" x2="210.43" y2="385.53" gradientTransform="matrix(0.98, 0.17, -0.18, 1.02, 168.7, -156.48)" xlink:href="#linear-gradient-fan"/>
        <linearGradient id="linear-gradient-fan-31" x1="198.02" y1="336.21" x2="229.02" y2="336.21" gradientTransform="matrix(1, 0.09, -0.09, 1.06, 83.59, -116.65)" xlink:href="#linear-gradient-fan"/>
    </defs>
    <g id="Layer_2" data-name="Layer 2">
        <g id="Layer_1-2" data-name="Layer 1">
            <path class="fanLeaf-1" d="M257.67,365.08c1,25.6,1.33,51.22,1.4,76.85L259,461.14c0,6.41-.14,12.82-.2,19.23s-.27,12.81-.43,19.22-.31,12.81-.54,19.22l-.29,9.61-.22,9.62-.53,19.24c-.13,3.21-.22,6.42-.42,9.62s-.39,6.4-.64,9.6c-.52,6.4-1.08,12.79-1.91,19.16l-1.27,9.55c-.46,3.18-.89,6.36-1.37,9.53s-1,6.35-1.58,9.52-1.14,6.33-1.73,9.49-1.23,6.32-1.88,9.47-1.41,6.29-2.15,9.43-1.53,6.27-2.37,9.39l-1.27,4.69c-.46,1.55-.88,3.11-1.37,4.66l-1.52-.19c-.11-1.63-.15-3.25-.23-4.86l-.12-4.85c-.08-3.22-.09-6.44-.09-9.65l.09-9.62c0-3.21.05-6.42.12-9.61.1-6.41.39-12.78.6-19.17.09-3.19.25-6.38.37-9.57l.48-9.55c.39-6.36.71-12.74,1.25-19.09.26-3.17.56-6.35.88-9.52l1-9.52,2.13-19c.67-6.35,1.24-12.71,1.81-19.07s1.07-12.72,1.57-19.09,1-12.73,1.46-19.1,1-12.74,1.46-19.11l1.35-19.13c1.81-25.5,3.34-51,4.74-76.59Z"/>
            <polygon class="fanLeaf-2" points="253.52 516.74 245.27 516.74 235.91 12.35 262.51 12.35 253.52 516.74"/>
            <polygon class="fanLeaf-3" points="253.1 516.34 244.88 517.33 203.65 14.29 230.16 11.08 253.1 516.34"/>
            <polygon class="fanLeaf-4" points="252.65 515.99 244.53 517.97 173.35 34.32 199.55 27.93 252.65 515.99"/>
            <polygon class="fanLeaf-5" points="256.02 513.57 248.06 516.52 145.74 38.5 171.44 28.98 256.02 513.57"/>
            <polygon class="fanLeaf-6" points="251.7 515.45 243.95 519.35 117.29 75.98 142.29 63.4 251.7 515.45"/>
            <polygon class="fanLeaf-7" points="251.21 515.27 243.73 520.09 94.54 108.29 118.65 92.74 251.21 515.27"/>
            <polygon class="fanLeaf-8" points="250.7 515.15 243.56 520.85 75.79 144.92 98.83 126.53 250.7 515.15"/>
            <polygon class="fanLeaf-9" points="254.79 510.85 248.04 517.38 51.3 151.43 73.1 130.33 254.79 510.85"/>
            <polygon class="fanLeaf-10" points="249.67 515.09 243.36 522.42 32.74 195.48 53.12 171.82 249.67 515.09"/>
            <polygon class="fanLeaf-11" points="249.16 515.16 243.33 523.22 4.84 211.75 23.66 185.73 249.16 515.16"/>
            <polygon class="fanLeaf-12" points="248.66 521.65 243.36 530.39 6 271.88 23.11 243.7 248.66 521.65"/>
            <polygon class="fanLeaf-13" points="248.16 515.47 243.43 524.81 6.96 311.66 22.22 281.52 248.16 515.47"/>
            <polygon class="fanLeaf-14" points="249.98 506.17 245.86 516.04 3.97 337.88 17.28 306.01 249.98 506.17"/>
            <polygon class="fanLeaf-15" points="247.22 516.02 243.73 526.35 0 383.48 11.24 350.14 247.22 516.02"/>
            <polygon class="fanLeaf-16" points="246.77 516.38 243.95 527.09 16.19 426.24 25.29 391.67 246.77 516.38"/>
            <polygon class="fanLeaf-17" points="255.4 526.3 253.27 515.29 523.34 401.8 530.23 437.34 255.4 526.3"/>
            <polygon class="fanLeaf-18" points="255.58 525.63 252.76 514.92 512.69 370.3 521.79 404.88 255.58 525.63"/>
            <polygon class="fanLeaf-19" points="255.71 532.37 252.22 522.04 520.19 334.95 531.43 368.3 255.71 532.37"/>
            <polygon class="fanLeaf-20" points="255.79 524.25 251.67 514.37 521.57 283.93 534.87 315.8 255.79 524.25"/>
            <polygon class="fanLeaf-21" points="254.3 518.23 249.57 508.89 493.99 256.41 509.25 286.55 254.3 518.23"/>
            <polygon class="fanLeaf-22" points="255.85 522.86 250.55 514.12 493.82 214.84 510.92 243.02 255.85 522.86"/>
            <polygon class="fanLeaf-23" points="255.79 522.12 249.96 514.06 485.18 170.47 503.99 196.48 255.79 522.12"/>
            <polygon class="fanLeaf-24" points="255.7 521.42 249.38 514.09 464.11 140.07 484.49 163.72 255.7 521.42"/>
            <polygon class="fanLeaf-25" points="260.17 526.04 253.41 519.5 448.69 111.27 470.48 132.37 260.17 526.04"/>
            <polygon class="fanLeaf-26" points="255.38 520.07 248.24 514.37 414.01 91.41 437.06 109.81 255.38 520.07"/>
            <polygon class="fanLeaf-27" points="255.16 519.43 247.69 514.61 391.82 56.54 415.94 72.09 255.16 519.43"/>
            <polygon class="fanLeaf-28" points="254.91 518.82 247.16 514.92 360.27 47.27 385.28 59.85 254.91 518.82"/>
            <polygon class="fanLeaf-29" points="257.35 515.28 249.5 511.82 348.29 40.42 373.64 51.59 257.35 515.28"/>
            <polygon class="fanLeaf-30" points="262.72 519.82 254.6 517.84 308.57 19.95 334.78 26.34 262.72 519.82"/>
            <polygon class="fanLeaf-31" points="257.75 517.2 249.54 516.2 272.79 0 299.3 3.21 257.75 517.2"/>
        </g>
    </g>
</svg>